<svg width="165" height="36" fill="none" xmlns="http://www.w3.org/2000/svg"><path d="M55.467 7.758c0 4.73-2.977 7.869-9.061 7.869h-4.51v8.281h-4.094V0h8.516c6.457 0 9.15 3.531 9.15 7.758zm-4.662-.043c0-2.354-1.51-3.901-4.05-3.901h-4.837V11.9h4.75c2.232 0 4.137-.98 4.137-4.185z" fill="#7F8599"/><path fill-rule="evenodd" clip-rule="evenodd" d="M76.393 23.908V0h4.094v23.908h-4.094zm33.359-14.144c-2.823 0-5.012 1.482-5.012 6.385v7.758h-4.095V6.103h3.985v2.768c.962-2.375 3.042-3.29 4.88-3.29h1.291v4.163l-1.049.02zm21.561 14.165V6.102h4.094v17.806h-4.094v.021zm0-23.667h4.094v4.075h-4.094V.262z" fill="#7F8599"/><path d="M150.706 23.93v-2.005c-1.335 1.766-3.37 2.44-5.209 2.44-4.815 0-7.88-3.878-7.88-9.371 0-5.535 3.349-9.415 8.011-9.415 2.255 0 3.853.785 5.013 2.136V0h4.159v23.908h-4.094v.021zm-8.558-8.936c0 3.814 1.577 5.885 4.4 5.885 2.56 0 4.29-1.897 4.29-5.885 0-3.9-1.882-5.84-4.289-5.84-2.759 0-4.401 2.157-4.401 5.84zm-44.303-3.77v8.804c0 1.395.11 2.616.59 3.901h-4.202a7.377 7.377 0 0 1-.439-1.547c-1.378 1.547-3.436 1.984-5.34 1.984-3.853 0-5.954-2.354-5.954-5.471 0-3.29 1.882-5.404 7.159-6.036l4.07-.502v-.806c0-2.114-.853-2.812-3.305-2.812-2.255 0-3.196.741-3.24 2.593H83.2c.11-3.9 2.868-5.731 7.487-5.731 5.362-.021 7.158 2.049 7.158 5.623zM86.594 18.59c0 1.635 1.007 2.397 2.912 2.397 2.253 0 4.223-1.613 4.223-3.792v-1.94l-2.933.415c-2.845.37-4.203 1.11-4.203 2.92zm-12.368-3.53c0 5.535-3.437 9.37-9.15 9.37-5.735 0-9.15-3.966-9.15-9.37 0-5.47 3.48-9.415 9.15-9.415 5.604 0 9.15 4.119 9.15 9.415zm-13.813-.066c0 3.814 1.796 5.994 4.664 5.994 2.868 0 4.662-2.201 4.662-5.994 0-3.792-1.905-5.906-4.662-5.906-2.758 0-4.663 2.092-4.663 5.906zm68.886.066c0 5.535-3.437 9.37-9.149 9.37-5.735 0-9.15-3.966-9.15-9.37 0-5.47 3.48-9.415 9.15-9.415 5.603 0 9.149 4.119 9.149 9.415zm-13.812-.066c0 3.814 1.795 5.994 4.663 5.994 2.868 0 4.662-2.201 4.662-5.994 0-3.792-1.905-5.906-4.662-5.906-2.758 0-4.663 2.092-4.663 5.906zM45.18 31.558c0 2.79-1.84 3.987-3.81 3.987-1.772 0-3.808-1.067-3.808-4.009 0-2.833 1.86-3.988 3.808-3.988 1.796 0 3.809 1.003 3.809 4.01h.001zm-5.889-.022c0 1.635.722 2.637 2.08 2.637 1.203 0 2.079-.937 2.079-2.594 0-1.612-.723-2.636-2.08-2.636-1.247 0-2.079.936-2.079 2.593zm20.335-1.44c0 1.026-.546 1.745-1.577 2.115l2.014 3.161h-1.97l-1.684-2.9h-1.072v2.9h-1.664v-7.65h2.912c2.145.02 3.042 1.067 3.042 2.375zm-4.29 1.091h1.314c.7 0 1.247-.262 1.247-1.09 0-.697-.438-1.024-1.204-1.024h-1.357v2.114z" fill="#7F8599"/><path fill-rule="evenodd" clip-rule="evenodd" d="M68.491 35.372v-7.65h1.663v7.649l-1.663.001zm17.03-5.776l-1.51.545c-.35-.806-.898-1.22-1.817-1.22-1.314 0-1.992 1.003-1.992 2.66 0 1.656.657 2.636 1.992 2.636 1.028 0 1.75-.546 1.75-1.503v-.284h-1.64v-1.265h3.327v4.207h-1.533v-.698c-.526.589-1.248.873-2.167.873-1.664 0-3.458-1.069-3.458-3.989 0-2.834 1.772-4.032 3.699-4.032 1.444.02 2.692.631 3.35 2.07zm8.646 5.797v-7.65h1.664v7.65h-1.664zm14.819-.021l-2.912-5.077v5.077h-1.51v-7.65h1.926l2.89 5.208v-5.209h1.511v7.65l-1.905.001z" fill="#7F8599"/><path d="M121.419 34.172l-.35 1.199h-1.707l2.495-7.649h2.102l2.494 7.65h-1.772l-.35-1.199h-2.912zm2.518-1.328l-1.073-3.837-1.072 3.837h2.145z" fill="#7F8599"/><path fill-rule="evenodd" clip-rule="evenodd" d="M139.915 33.955v1.438h-4.99v-7.65h1.663v6.212h3.327zm8.494.175l1.094-1.003a3.13 3.13 0 0 0 2.386 1.024c.876 0 1.511-.326 1.511-.915 0-.568-.285-.85-1.905-1.133-1.817-.327-2.692-.981-2.692-2.332 0-1.374 1.203-2.245 2.999-2.245 1.509 0 2.561.588 3.216 1.352l-1.137.914c-.526-.589-1.292-.937-2.079-.894-.833 0-1.292.305-1.292.829 0 .501.307.741 1.839 1.024 1.925.327 2.78 1.003 2.78 2.376 0 1.503-1.248 2.418-3.262 2.418-1.401.023-2.649-.457-3.459-1.416h.001z" fill="#7F8599"/><path d="M161.039.85h-1.072v2.702h-.679V.85h-1.073V.283h2.802V.85h.022zM165 3.552h-.656l-.153-2.462-.723 2.484h-.722l-.722-2.463-.154 2.463h-.657l.219-3.29h.964l.722 2.55.7-2.55h.963L165 3.552z" fill="#7F8599"/><path fill-rule="evenodd" clip-rule="evenodd" d="M0 6.625h29.637V10.7H0V6.625zM0 0h29.637v4.076H0V0zm0 27.243h29.637v8.15H0v-8.15zm0-7.388h29.637v4.074H0v-4.074zm0-6.626h29.637v4.075H0V13.23z" fill="#7F8599"/></svg>