<svg width="150" height="20" fill="none" xmlns="http://www.w3.org/2000/svg"><g clip-path="url(#clip0)" fill="#81879B"><path d="M9.026 1.29H0v17.851h9.026V1.291zm2.922 0h9.05l7.95 8.103h.05V1.29h8.474v17.851h-7.95l-9.048-8.753h-.05v8.753h-8.476V1.291zm28.406 0h9.026v7.603h.05l5.818-7.603h10.826l-8.179 9.226 7.754 8.625H55.323l-5.893-6.829h-.05v6.83h-9.026V1.29zm36.704 13.7h3.439c1.4 0 1.75-.488 1.75-1.3 0-.81-.35-1.3-1.725-1.3h-3.464v2.6zm0-6.45h3.239c1.384 0 1.8-.43 1.8-1.287 0-.858-.425-1.287-1.675-1.287h-3.364V8.54zM68.31 1.29h14.782c4.565 0 6.969 1.75 6.969 4.475 0 2.776-1.775 4.257-4.464 4.42v.06c2.872.237 5.23.918 5.23 4.246 0 2.66-1.921 4.65-6.871 4.65H68.31V1.291zm54.237 9.275l-6.5-9.275h10.551l2.322 4.552 2.503-4.552h10.275l-6.763 9.275 6.238 8.576h-10l-2.259-4.001-.015-.025-.015.024-2.561 4.002h-10.126l6.35-8.576z"/><path d="M104.69 14.078c-2.565 0-3.126-.957-3.126-3.862 0-2.906.561-3.863 3.126-3.863 2.564 0 3.125.957 3.125 3.863 0 2.905-.561 3.862-3.125 3.862zM104.689.765c-6.5 0-12.325 1.95-12.325 8.95 0 4.1.925 9.951 12.325 9.951 11.401 0 12.326-5.85 12.326-9.95 0-7.001-5.826-8.951-12.326-8.951zm44.913 4.03a11.142 11.142 0 0 0-.856-1.237c-.405-.535-.77-1.1-1.094-1.688a8.54 8.54 0 0 1-.727-1.87 8.54 8.54 0 0 1-.727 1.87 13.877 13.877 0 0 1-1.094 1.688c-.313.393-.599.807-.856 1.238-.259.434-.395.929-.397 1.434a2.41 2.41 0 0 0 1.028 1.818 3.69 3.69 0 0 0 4.092 0 2.406 2.406 0 0 0 1.028-1.818c-.001-.505-.138-1-.397-1.434"/></g><defs><clipPath id="clip0"><path fill="#fff" d="M0 0H150V19.666H0z"/></clipPath></defs></svg>