<svg width="97" height="46" xmlns="http://www.w3.org/2000/svg"><g transform="translate(.923 .98)" fill="none" fill-rule="evenodd"><path d="M10.038 7.734v-.032s.102.016.283.032h1.352c1.387-.109 3.4-.593 4.992-2.307l1.524-4.033a.338.338 0 0 1 .304-.218l8.33-.286a.337.337 0 0 1 .328.453l-2.345 6.39h37.358c.254 0 .417.27.299.495l-3.447 6.56a.338.338 0 0 1-.3.18H22.154l-7.36 20.802a2.545 2.545 0 0 0-.1.291c-.07.244-.108.486-.1.704.017.535.289.814 1.039.814H31.43c.237 0 .4.238.315.459l-2.298 5.988a.338.338 0 0 1-.315.216L6.923 44.23a5.124 5.124 0 0 1-1.472-.753c-1.442-1.07-1.973-2.683-1.05-4.82l8.666-23.688H1.272a.337.337 0 0 1-.299-.495l3.446-6.559a.337.337 0 0 1 .3-.18h5.32zm14.64 10.332a.417.417 0 0 1 .392-.273h14.496c.29 0 .492.289.392.561L34.47 33.27a.417.417 0 0 1-.392.273H19.583a.417.417 0 0 1-.392-.561l5.487-14.915zm8.198 5.194h-4.904l-1.886 5.125h4.904l1.886-5.125zm10.33 10.81l-3.615 9.955a.626.626 0 0 1-.593.412l-5.18-.043a.625.625 0 0 1-.582-.84l9.296-25.456a.625.625 0 0 1 .591-.411l14.68.074c.43.002.73.428.587.834l-5.323 15.057a.625.625 0 0 1-.59.417h-9.27zm7.8-10.382h-4.03l-1.73 4.767h4.077l1.683-4.767zm7.58 20.337a.625.625 0 0 1-.594.412l-5.177-.043a.626.626 0 0 1-.583-.84l9.295-25.456a.625.625 0 0 1 .59-.411l14.68.074c.43.002.73.428.587.834l-5.321 15.057a.625.625 0 0 1-.59.417H62.2l-3.616 9.956zM70 23.688h-4.029l-1.73 4.767h4.075L70 23.688zm12.354-5.245a4.756 4.756 0 0 1 2.026-.6h10.593c.454 0 .757.47.57.884l-2.229 4.917a.626.626 0 0 1-.573.368l-5.44-.034c-.61 0-1.011.117-1.257.293a.515.515 0 0 0-.146.137l-.937 2.317-.046.092c-.214.35-.233.487-.227.497.012.017.143.068.369.088a3.196 3.196 0 0 0 .761-.03l.106-.01h3.951c1.123 0 1.73.666 1.793 1.626.02.314-.016.633-.088.946-.035.152-.071.27-.115.39L86.16 42.28c-.332.6-.731 1.073-1.185 1.423-.815.629-1.676.802-2.412.719a2.156 2.156 0 0 1-.068-.009H62.738a.625.625 0 0 1-.593-.822l1.861-5.61a.626.626 0 0 1 .594-.428h15.35c.318 0 .506-.08.623-.204a.468.468 0 0 0 .086-.12l.045-.125 1.482-3.038c.153-.26.138-.305-.016-.406a.886.886 0 0 0-.155-.08h-2.801c-1.644.02-2.593-.561-2.793-1.59a2.319 2.319 0 0 1 .087-1.147c.046-.146.094-.26.11-.286l3.92-9.963c.326-.974.967-1.682 1.816-2.152z" fill="#7F8599"/><path d="M88.487 11.741c0-1.697 1.274-2.977 2.908-2.977 1.613 0 2.888 1.28 2.888 2.977 0 1.725-1.275 2.995-2.888 2.995-1.634 0-2.908-1.27-2.908-2.995zm2.908 3.592c1.944 0 3.605-1.516 3.605-3.592 0-2.058-1.661-3.574-3.605-3.574-1.964 0-3.626 1.516-3.626 3.574 0 2.076 1.662 3.592 3.626 3.592zm-.756-3.308h.718l1.085 1.792h.698l-1.17-1.82c.605-.076 1.067-.399 1.067-1.138 0-.815-.48-1.176-1.454-1.176h-1.567v4.134h.623v-1.792zm0-.53v-1.28h.85c.434 0 .897.094.897.607 0 .635-.472.672-1 .672h-.747z" fill="#A0A8C0"/></g></svg>