<svg height="60" width="185" xmlns="http://www.w3.org/2000/svg"><g fill="#7f8599" fill-rule="evenodd"><path d="M150.014 18.926a1.927 1.927 0 1 1-3.853-.001 1.927 1.927 0 0 1 3.853 0m-93.078 4.556v3.149h-3.498v8.666c-.068.57.076 1.147.405 1.618a2.342 2.342 0 0 0 1.618.405h.771c.236-.02.471-.052.704-.097v3.66c-.447.071-.897.116-1.35.134h-1.445a13.97 13.97 0 0 1-2.1-.154 4.964 4.964 0 0 1-1.754-.587 3.111 3.111 0 0 1-1.195-1.242 4.437 4.437 0 0 1-.433-2.119V26.63h-2.89v-3.15h2.89v-5.219h4.818v5.22h3.507z"/><path d="M62.9 36.702a4.907 4.907 0 0 0 5.589.318c.589-.35 1.041-.89 1.281-1.531h4.21a7.983 7.983 0 0 1-3.102 4.478 9.129 9.129 0 0 1-5.02 1.348 9.95 9.95 0 0 1-3.71-.655 7.709 7.709 0 0 1-2.794-1.868 8.396 8.396 0 0 1-1.773-2.889 10.587 10.587 0 0 1-.626-3.707 10.144 10.144 0 0 1 .626-3.64 8.419 8.419 0 0 1 4.635-4.815 9.023 9.023 0 0 1 3.642-.732 8.281 8.281 0 0 1 3.854.857 7.707 7.707 0 0 1 2.698 2.301 9.483 9.483 0 0 1 1.532 3.303 12.3 12.3 0 0 1 .337 3.852H61.753a4.813 4.813 0 0 0 1.147 3.38zm5.405-9.11a3.364 3.364 0 0 0-2.61-.962 4.165 4.165 0 0 0-1.928.385 3.514 3.514 0 0 0-1.85 2.176 5.447 5.447 0 0 0-.221 1.146h7.785a5.526 5.526 0 0 0-1.176-2.744zm13.124 9.11a4.907 4.907 0 0 0 5.588.318c.59-.35 1.042-.89 1.282-1.531h4.21a7.983 7.983 0 0 1-3.102 4.478 9.129 9.129 0 0 1-5.049 1.348 9.95 9.95 0 0 1-3.71-.655 7.709 7.709 0 0 1-2.794-1.868 8.396 8.396 0 0 1-1.773-2.889 10.587 10.587 0 0 1-.588-3.707c-.021-1.24.184-2.474.608-3.64a8.419 8.419 0 0 1 4.634-4.815 9.023 9.023 0 0 1 3.623-.703 8.281 8.281 0 0 1 3.854.857 7.707 7.707 0 0 1 2.698 2.272 9.483 9.483 0 0 1 1.532 3.303 12.3 12.3 0 0 1 .395 3.9H80.311a4.813 4.813 0 0 0 1.118 3.332zm5.405-9.11a3.364 3.364 0 0 0-2.61-.962 4.165 4.165 0 0 0-1.928.385 3.514 3.514 0 0 0-1.85 2.176 5.447 5.447 0 0 0-.222 1.146h7.796a5.526 5.526 0 0 0-1.186-2.744z" fill-rule="nonzero"/><path d="M98.792 18.165v22.716h-4.818V18.165z"/><path d="M127.477 37.598a4.617 4.617 0 0 1-2.708.722 4.82 4.82 0 0 1-2.09-.424 4.133 4.133 0 0 1-1.446-1.126 4.814 4.814 0 0 1-.858-1.647 6.67 6.67 0 0 1-.289-1.926h12.796a9.97 9.97 0 0 0-.25-3.784 9.204 9.204 0 0 0-1.571-3.246 8.093 8.093 0 0 0-2.708-2.272 7.808 7.808 0 0 0-3.719-.886 7.903 7.903 0 0 0-6.147 2.744 8.993 8.993 0 0 0-1.686 2.89 10.462 10.462 0 0 0-.588 3.514c-.014 1.258.175 2.51.559 3.707a7.991 7.991 0 0 0 1.647 2.89 7.515 7.515 0 0 0 2.679 1.925 9.226 9.226 0 0 0 3.642.674 9.438 9.438 0 0 0 2.708-.385 7.71 7.71 0 0 0 2.341-1.146 7.203 7.203 0 0 0 2.814-4.343h-3.643a4.256 4.256 0 0 1-1.483 2.119zm-7.005-8.773a4.815 4.815 0 0 1 .963-1.464c.4-.415.883-.742 1.417-.962a4.618 4.618 0 0 1 1.782-.366c.613-.01 1.22.122 1.773.385.507.231.965.558 1.349.963.38.43.677.926.877 1.463.212.563.342 1.153.385 1.753h-8.96c.03-.61.17-1.21.414-1.772z" fill-rule="nonzero"/><path d="M146.14 23.48h3.855v17.401h-3.855zM115 33.545a4.43 4.43 0 0 0-1.282-1.445 6.64 6.64 0 0 0-1.802-.905 16.742 16.742 0 0 0-2.052-.568l-2.09-.433a12.532 12.532 0 0 1-1.803-.492 3.855 3.855 0 0 1-1.281-.722 1.463 1.463 0 0 1-.492-1.146 1.29 1.29 0 0 1 .338-.963c.234-.23.517-.404.828-.51a4.473 4.473 0 0 1 1.04-.25c.32-.042.642-.064.964-.068a5.244 5.244 0 0 1 2.274.472 2.388 2.388 0 0 1 1.263 1.849h4.008a5.776 5.776 0 0 0-.877-2.475 5.442 5.442 0 0 0-1.647-1.666 7.017 7.017 0 0 0-2.226-.963 11.357 11.357 0 0 0-2.573-.289c-.83.003-1.66.08-2.476.231a7.644 7.644 0 0 0-2.36.829c-.694.379-1.293.909-1.755 1.55a3.956 3.956 0 0 0-.693 2.369c-.026.762.137 1.52.472 2.205.3.58.733 1.08 1.262 1.464a6.66 6.66 0 0 0 1.783.905c.679.228 1.37.418 2.071.568l2.053.433c.611.12 1.214.284 1.801.492.481.163.924.421 1.301.76.338.315.533.753.54 1.214.041.429-.087.857-.357 1.194-.259.307-.59.545-.963.693-.419.16-.856.267-1.301.318-.41.053-.82.082-1.233.086a5.042 5.042 0 0 1-2.66-.674 2.802 2.802 0 0 1-1.262-2.166h-3.854c.019.866.23 1.718.616 2.494.382.76.937 1.419 1.62 1.926.73.526 1.554.908 2.427 1.126.995.253 2.019.376 3.045.366.917 0 1.831-.1 2.727-.298a8.347 8.347 0 0 0 2.505-.963 5.587 5.587 0 0 0 1.84-1.753c.49-.787.735-1.702.704-2.629a4.37 4.37 0 0 0-.443-2.166z"/><path d="M167.868 29.384a9.204 9.204 0 0 0-1.57-3.245 8.093 8.093 0 0 0-2.708-2.273 7.809 7.809 0 0 0-3.69-.857 7.903 7.903 0 0 0-6.148 2.744 8.993 8.993 0 0 0-1.686 2.89 10.462 10.462 0 0 0-.588 3.514c-.013 1.258.176 2.51.56 3.707a7.991 7.991 0 0 0 1.647 2.89 7.515 7.515 0 0 0 2.679 1.925 9.226 9.226 0 0 0 3.642.674 9.438 9.438 0 0 0 2.707-.385 7.71 7.71 0 0 0 2.342-1.146 7.203 7.203 0 0 0 2.813-4.343h-3.642c-.27.847-.8 1.588-1.513 2.119a4.617 4.617 0 0 1-2.707.722 4.82 4.82 0 0 1-2.091-.424 4.133 4.133 0 0 1-1.445-1.126 4.814 4.814 0 0 1-.858-1.647 6.67 6.67 0 0 1-.29-1.926h12.797a9.97 9.97 0 0 0-.25-3.813zm-12.526 1.261a5.101 5.101 0 0 1 .386-1.82 4.815 4.815 0 0 1 .963-1.464c.4-.415.883-.742 1.417-.962a4.618 4.618 0 0 1 1.84-.357c.613-.01 1.22.122 1.773.385.507.232.965.559 1.349.963.38.43.677.927.877 1.464.212.563.342 1.153.385 1.753h-8.96z" fill-rule="nonzero"/><path d="M183.979 33.544a4.43 4.43 0 0 0-1.282-1.445 6.64 6.64 0 0 0-1.802-.905 16.742 16.742 0 0 0-2.052-.568l-2.09-.433a12.532 12.532 0 0 1-1.803-.492 3.855 3.855 0 0 1-1.281-.722 1.463 1.463 0 0 1-.492-1.146 1.29 1.29 0 0 1 .338-.963c.231-.24.515-.424.828-.539a4.473 4.473 0 0 1 1.04-.25c.32-.042.642-.064.964-.068a5.244 5.244 0 0 1 2.274.472 2.388 2.388 0 0 1 1.263 1.85h4.008a5.775 5.775 0 0 0-.829-2.476 5.442 5.442 0 0 0-1.647-1.666 7.017 7.017 0 0 0-2.226-.963 11.357 11.357 0 0 0-2.573-.289c-.83.003-1.66.08-2.476.232a7.644 7.644 0 0 0-2.36.828c-.694.38-1.293.909-1.754 1.55a3.956 3.956 0 0 0-.694 2.369c-.025.763.137 1.52.472 2.205.3.58.733 1.081 1.262 1.464a6.66 6.66 0 0 0 1.783.905c.68.228 1.37.418 2.071.568l2.053.434c.612.119 1.214.283 1.802.49.48.164.923.422 1.3.761.338.315.533.753.54 1.214.041.429-.087.857-.357 1.194-.259.307-.59.545-.963.693-.419.16-.856.267-1.3.318-.41.054-.822.083-1.234.087a5.042 5.042 0 0 1-2.66-.674 2.802 2.802 0 0 1-1.29-2.1h-3.855c.019.867.23 1.719.617 2.494.381.76.936 1.42 1.618 1.926.73.526 1.555.909 2.429 1.127.994.253 2.018.376 3.044.366.917-.001 1.832-.101 2.727-.299a8.347 8.347 0 0 0 2.505-.963 5.587 5.587 0 0 0 1.84-1.752c.49-.788.735-1.703.704-2.63a4.37 4.37 0 0 0-.462-2.204zM44.467 25.888a5.452 5.452 0 0 0-1.734-1.704 7.277 7.277 0 0 0-2.37-.905 13.816 13.816 0 0 0-2.746-.27 14.963 14.963 0 0 0-2.766.25 7.605 7.605 0 0 0-2.428.877 4.816 4.816 0 0 0-1.734 1.704 5.236 5.236 0 0 0-.655 2.716c-.02.672.143 1.338.472 1.925.311.524.736.972 1.243 1.31a6.94 6.94 0 0 0 1.773.838c.642.212 1.32.398 2.033.558 1.359.285 2.695.668 3.998 1.146a1.791 1.791 0 0 1 1.436 1.618c.016.376-.09.747-.299 1.06-.2.278-.46.509-.76.673-.303.168-.627.291-.964.366a5.09 5.09 0 0 1-1.06.116 5.457 5.457 0 0 1-1.369-.164 3.537 3.537 0 0 1-1.165-.52 2.793 2.793 0 0 1-.829-.905c-.184-.331-.29-.7-.308-1.078h-4.587c.034.935.299 1.848.771 2.657a5.78 5.78 0 0 0 1.85 1.868c.794.47 1.665.797 2.573.963.976.202 1.97.302 2.967.299.971-.002 1.94-.098 2.891-.289.9-.16 1.763-.487 2.544-.963a5.286 5.286 0 0 0 2.524-4.738 4.052 4.052 0 0 0-.472-2.032 4.325 4.325 0 0 0-1.243-1.377 6.746 6.746 0 0 0-1.773-.895 20.398 20.398 0 0 0-2.033-.568l-1.985-.434a15.347 15.347 0 0 1-1.734-.452 3.633 3.633 0 0 1-1.233-.655 1.31 1.31 0 0 1-.473-1.04 1.29 1.29 0 0 1 .27-.857c.177-.213.402-.38.655-.491.273-.118.562-.192.858-.222.291-.031.584-.047.877-.048a4.82 4.82 0 0 1 2.226.491 2.022 2.022 0 0 1 1.03 1.695h4.548a5.602 5.602 0 0 0-.819-2.523zm99.852-2.398c-1.696 0-4.191-.125-6.455 2.1h-.116v-2.07h-3.604v17.4h3.854v-9.957c0-3.13 2.804-4.025 6.34-4.025V23.49z"/><path d="M17.103 21.728v-2.802a1.927 1.927 0 0 0-3.854 0v2.802a10.692 10.692 0 0 0-8.537 8.532H1.956a1.927 1.927 0 1 0 0 3.852h2.708c.962 5.303 5.734 9.055 11.118 8.74s9.686-4.598 10.022-9.978-3.398-10.163-8.701-11.146m-1.927 17.247c-3.725 0-6.745-3.018-6.745-6.74s3.02-6.742 6.745-6.742 6.745 3.018 6.745 6.741-3.02 6.74-6.745 6.74" fill-rule="nonzero"/><path d="M10.936 32.224a4.193 4.193 0 0 0 7.159 2.959 4.187 4.187 0 0 0-2.977-7.147 4.19 4.19 0 0 0-4.182 4.188m2.89 0a1.252 1.252 0 1 1 1.253 1.252 1.262 1.262 0 0 1-1.252-1.252" fill-rule="nonzero"/><path d="M7.005 22.383a1.927 1.927 0 1 1-3.853-.001 1.927 1.927 0 0 1 3.853.001"/></g></svg>