<svg width="60" height="55" fill="none" xmlns="http://www.w3.org/2000/svg"><path d="M57.087 16.67c-1.618 0-2.912-1.267-2.912-2.852s1.294-2.852 2.912-2.852c1.618 0 2.913 1.267 2.913 2.852 0 1.521-1.294 2.852-2.913 2.852zm0-5.324c-1.359 0-2.524 1.078-2.524 2.472 0 1.395 1.1 2.472 2.524 2.472 1.36 0 2.525-1.077 2.525-2.472 0-1.394-1.1-2.472-2.525-2.472z" fill="#81879B"/><path d="M58.382 15.53h-.453c-.065-.064-.065-.19-.065-.38 0-.191-.065-.318-.065-.508s0-.317-.064-.38c-.13-.19-.26-.254-.518-.254h-.712v1.585h-.389v-3.55h.907c.388 0 .712.064.906.19.194.127.323.38.323.761 0 .254-.064.444-.194.57-.13.127-.259.254-.518.254.195 0 .324.063.389.127l.194.19c.065.063.065.127.065.254v.76c0 .127.064.19.064.254 0 .063.065.063.065.063v.063h.065zm-.583-2.536c0-.253-.064-.444-.259-.507a1.019 1.019 0 0 0-.517-.127h-.583v1.268h.647c.194 0 .389-.063.518-.127.13-.127.194-.253.194-.507zM9.968 26.875c0 6.402-.453 11.03-2.784 12.234v3.93c5.567-.698 7.314-6.656 7.314-16.164 0-9.38-1.294-15.402-7.314-16.163v3.803c2.33 1.078 2.784 5.515 2.784 12.36zM7.184 39.11c-.453.253-.841.253-1.488.253H4.4v-24.72c.453-.253 1.036-.38 1.618-.38.453 0 .907.127 1.165.253v-3.803H5.696c-2.2 0-4.725.57-5.696 1.331V51.09h4.401v-8.177c.453 0 1.165.127 1.877.127h.906v-3.93zM21.554 5.07c-1.49 0-2.654-1.078-2.654-2.599C18.9 1.141 20.065 0 21.553 0c1.295 0 2.525 1.078 2.525 2.472 0 1.521-1.165 2.599-2.525 2.599zm2.2 6.021h-4.53v31.82h4.53v-31.82zm15.599 31.82l-3.56-13.628-3.495 13.628h-4.725L33.139 25.1l-5.113-14.009h4.725l3.042 10.459 2.977-10.459h4.66l-4.983 14.009 5.566 17.81h-4.66zm10.68 6.022c1.488 0 2.524 1.077 2.524 2.472 0 1.52-1.036 2.598-2.525 2.598-1.488 0-2.653-1.077-2.653-2.598 0-1.395 1.23-2.472 2.653-2.472zm2.2-37.968h-4.401v31.946h4.4V10.966z" fill="#81879B"/></svg>