<svg xmlns="http://www.w3.org/2000/svg" width="178" height="32"><path fill="#7F8599" d="M28.337 29.237c.72 0 1.277.701 1.04 1.465-.141.459-.587.75-1.063.75H15.796c-.72 0-1.278-.701-1.04-1.464.141-.456.585-.751 1.06-.751h12.521zm4.026-18.853a1.843 1.843 0 0 1-1.832-1.852c0-1.024.82-1.853 1.832-1.853h3.633a1.84 1.84 0 0 1 1.831 1.853 1.841 1.841 0 0 1-1.83 1.852h-3.634zm3.633 10.838c1.012 0 1.833.828 1.833 1.852s-.82 1.853-1.833 1.853H20.94a1.84 1.84 0 0 1-1.83-1.853 1.84 1.84 0 0 1 1.83-1.852h15.057zM9.297 13.764h-.002 5.584c1.115 0 2.018.913 2.018 2.04a2.028 2.028 0 0 1-2.016 2.038H9.297a2.028 2.028 0 0 1-2.016-2.039c0-1.126.903-2.04 2.016-2.04zm29.27 0c1.115 0 2.017.913 2.017 2.04a2.028 2.028 0 0 1-2.017 2.038h-6.02a2.028 2.028 0 0 1-2.016-2.039c0-1.126.903-2.04 2.016-2.04h6.02zm-23.51-3.38H2.617c-1.01 0-1.83-.83-1.83-1.852a1.84 1.84 0 0 1 1.83-1.853H26.5c1.01 0 1.831.829 1.831 1.853 0 1.022-.82 1.852-1.831 1.852H15.057zm1.84 12.69a1.84 1.84 0 0 1-1.832 1.853H2.618a1.842 1.842 0 0 1-1.833-1.853c0-1.024.82-1.852 1.833-1.852h12.447c1.011 0 1.833.828 1.833 1.852zm16.05 6.181c.432.08.784.436.866.873a1.109 1.109 0 0 1-1.296 1.31 1.107 1.107 0 0 1-.862-.874 1.105 1.105 0 0 1 1.292-1.309zM16.894 2.373c-.72 0-1.278-.704-1.041-1.467.141-.458.588-.75 1.063-.75h12.519c.719 0 1.277.7 1.04 1.464-.142.458-.587.753-1.062.753H16.894zm-4.61-.017a1.11 1.11 0 0 1-.865-.874 1.109 1.109 0 0 1 1.295-1.31c.43.083.781.438.862.874a1.107 1.107 0 0 1-1.293 1.31zM69.28 15.844h-.002c0-1.299-.256-2.483-.769-3.517a5.916 5.916 0 0 0-2.222-2.446c-.966-.596-2.124-.899-3.438-.899-1.334 0-2.495.303-3.453.899a5.92 5.92 0 0 0-2.207 2.446c-.51 1.034-.77 2.217-.77 3.518 0 1.3.26 2.482.772 3.516a5.933 5.933 0 0 0 2.206 2.45c.96.595 2.12.898 3.454.898 1.313 0 2.47-.304 3.438-.899a5.93 5.93 0 0 0 2.223-2.449c.51-1.035.768-2.218.768-3.517zm-1.69-8.179v.003a8.349 8.349 0 0 1 3.158 3.338c.744 1.412 1.137 3.04 1.174 4.836-.035 1.805-.43 3.432-1.174 4.842a8.317 8.317 0 0 1-3.158 3.338c-1.348.8-2.942 1.206-4.737 1.206-1.799 0-3.398-.403-4.755-1.203a8.241 8.241 0 0 1-3.158-3.326c-.738-1.403-1.125-3.035-1.162-4.85.034-1.82.423-3.453 1.162-4.856a8.244 8.244 0 0 1 3.158-3.327c1.355-.797 2.954-1.203 4.752-1.203 1.798 0 3.393.405 4.74 1.202zm17.532 6.831h-.004l6.633 8.453c.208.268.314.553.314.844.019.355-.101.662-.353.92a1.266 1.266 0 0 1-.93.382c-.444 0-.797-.178-1.05-.529l-6.424-8.29-2.71 2.77v4.729c0 .37-.132.688-.394.94-.26.255-.576.382-.939.382a1.298 1.298 0 0 1-1.31-1.322V7.94c0-.368.127-.688.376-.952.25-.263.567-.396.933-.396.364 0 .683.132.944.394.256.263.39.583.39.952v7.75l8.391-8.634a1.26 1.26 0 0 1 .983-.462c.33 0 .617.113.86.338.247.228.371.516.371.856 0 .386-.11.694-.326.913l-5.755 5.797zm23.852-5.26h-8.842v5.336h7.928c.348 0 .648.123.892.37s.366.55.366.902c0 .353-.123.653-.37.89a1.226 1.226 0 0 1-.89.356h-7.924v5.36h8.839c.35 0 .65.125.892.37.244.246.366.55.366.902 0 .354-.124.653-.368.89a1.235 1.235 0 0 1-.89.355H98.8a1.27 1.27 0 0 1-.93-.381 1.293 1.293 0 0 1-.378-.943V8.068c0-.368.127-.688.375-.95.254-.265.568-.398.934-.398h10.173c.35 0 .649.123.892.37.244.244.366.548.366.901 0 .355-.124.654-.368.891a1.235 1.235 0 0 1-.89.355zm21.693-2.645l.001.001c.366 0 .683.132.942.394.26.263.39.583.39.952v15.32c0 .507-.182.945-.544 1.302a1.79 1.79 0 0 1-1.295.534h-.305c-.297 0-.579-.07-.841-.21a1.95 1.95 0 0 1-.637-.547l-9.521-13.907v13.345c0 .37-.13.688-.39.94a1.304 1.304 0 0 1-.942.382 1.27 1.27 0 0 1-.93-.382 1.293 1.293 0 0 1-.378-.94V8.455c0-.505.178-.946.53-1.31a1.73 1.73 0 0 1 1.287-.554h.329c.592 0 1.107.283 1.528.837l9.465 13.829V7.94c0-.368.13-.688.378-.952.253-.262.567-.397.933-.397zm21.376 9.253h-.002c0-1.298-.284-2.457-.84-3.445a5.953 5.953 0 0 0-2.372-2.323c-1.02-.556-2.223-.84-3.572-.84h-3.487V22.45h3.487c1.353 0 2.554-.282 3.572-.84a5.958 5.958 0 0 0 2.372-2.32c.558-.989.842-2.148.842-3.445zm-1.51-7.802l-.003-.003c1.364.878 2.404 2.027 3.092 3.418a9.825 9.825 0 0 1 0 8.774c-.69 1.391-1.73 2.54-3.092 3.415-1.366.878-3.048 1.321-4.999 1.321h-5.099a1.27 1.27 0 0 1-.93-.381 1.293 1.293 0 0 1-.378-.943V8.066c0-.368.126-.688.376-.95.25-.264.568-.397.934-.397h5.1c1.95 0 3.633.444 4.998 1.323zm18.164 14.666c1.315 0 2.473-.303 3.441-.898a5.928 5.928 0 0 0 2.222-2.449c.51-1.032.768-2.216.768-3.516 0-1.302-.259-2.486-.768-3.52a5.918 5.918 0 0 0-2.222-2.446c-.966-.595-2.125-.898-3.441-.898-1.33 0-2.492.303-3.45.898a5.935 5.935 0 0 0-2.21 2.447c-.51 1.034-.768 2.217-.768 3.518 0 1.3.259 2.485.768 3.516a5.94 5.94 0 0 0 2.21 2.45c.959.595 2.12.898 3.45.898zm7.901-11.704h.003c.745 1.413 1.14 3.04 1.174 4.837-.034 1.805-.43 3.432-1.174 4.845a8.326 8.326 0 0 1-3.158 3.335c-1.35.8-2.944 1.206-4.743 1.206-1.797 0-3.395-.404-4.752-1.204a8.249 8.249 0 0 1-3.158-3.325c-.737-1.406-1.127-3.036-1.162-4.85.033-1.82.423-3.453 1.162-4.856a8.21 8.21 0 0 1 3.158-3.323c1.354-.8 2.953-1.206 4.75-1.206 1.8 0 3.394.406 4.742 1.206a8.334 8.334 0 0 1 3.158 3.335z"/></svg>