<svg height="40" viewBox="0 0 175 40" width="175" xmlns="http://www.w3.org/2000/svg"><path d="m2.09 18.087 26.64-17.565c1.045-.696 2.7-.696 3.744 0l26.642 17.652c1.567 1.043 1.567 2.783 0 3.826l-3.57 2.348a29.494 29.494 0 0 0 -24.987-13.74c-10.535 0-19.677 5.479-24.988 13.74l-3.569-2.348c-1.567-1.13-1.567-2.87.088-3.913zm28.47-.174c7.923 0 14.888 4.174 18.632 10.435l-6.095 4.087c-2.612-4.261-7.313-7.13-12.624-7.13-5.398 0-10.013 2.869-12.625 7.13l-6.094-4.087c3.918-6.261 10.883-10.435 18.806-10.435zm0 14.696c2.786 0 5.31 1.652 6.355 3.826l-4.092 2.695a3.54 3.54 0 0 1 -2.35.87c-.871 0-1.655-.348-2.351-.87l-4.092-2.695c1.306-2.261 3.744-3.826 6.53-3.826zm46.23-12.696 6.704 9.565h-4.701l-5.05-7.391v7.391h-3.831v-18.956h3.83v7.565l4.79-7.565h4.44zm13.32-9.391-.086 15.217h6.007v3.826h-9.75v-19.043h3.83zm17.24-.609 8.01 19.652h-4.266l-.784-2.087h-6.269l-.783 2.087h-4.354l8.01-19.652zm1.567 14-1.741-4.87-1.742 4.87zm11.754-2.783 3.83-10.521h4.354l-8.01 19.652h-.348l-8.01-19.652h4.266zm11.057 8.435v-19.043h3.83v19.043zm18.98-19.043v.087h4.701l-6.616 10.434v8.522h-3.744v-8.608l-6.617-10.435h4.614l3.831 6.521zm24.292 9.217c0 5.391-4.44 9.826-9.838 9.826s-9.839-4.435-9.839-9.826 4.44-9.826 9.839-9.826c5.398 0 9.838 4.348 9.838 9.826zm-3.657 0a6.053 6.053 0 0 0 -6.094-6.087 6.053 6.053 0 0 0 -6.095 6.087 6.053 6.053 0 0 0 6.095 6.087c3.308 0 6.094-2.783 6.094-6.087z" fill="#7f8599"/></svg>