<svg xmlns="http://www.w3.org/2000/svg" width="150" height="36"><path fill="#7F8599" d="M71.343 19.695c.74-.929 1.11-2.136 1.11-3.623 0-1.51-.393-2.74-1.157-3.67-.81-.998-1.944-1.486-3.356-1.486-1.435 0-2.57.534-3.403 1.58-.74.975-1.111 2.16-1.111 3.553a6.3 6.3 0 0 0 .324 1.974c.231.627.532 1.185.95 1.626.879.976 2.036 1.463 3.471 1.463 1.343.023 2.408-.464 3.172-1.417zM68.218 7.2c2.615 0 4.676.813 6.203 2.462 1.459 1.58 2.2 3.6 2.2 6.108 0 2.509-.765 4.576-2.27 6.225-1.596 1.742-3.703 2.624-6.342 2.624-2.731 0-4.86-.859-6.412-2.554-1.412-1.557-2.106-3.554-2.106-6.016 0-1.184.208-2.323.602-3.39a8.063 8.063 0 0 1 1.736-2.834C63.472 8.083 65.602 7.2 68.218 7.2zm15.694 1.44l4.7-1.905h.045V10.8l-4.745 1.951v11.868h-4.05V7.246h4.05V8.64zm26.273 15.98V7.2h3.935v17.42h-3.935zm-58.657-8.548c.671-.65 1.018-1.44 1.018-2.346 0-.905-.3-1.649-.926-2.206-.601-.557-1.458-.836-2.546-.836-1.805 0-2.963.673-3.472 1.997-.162.395-.232.79-.232 1.185s.093.766.255 1.138c.162.348.417.673.74.975.718.65 1.667.976 2.848.976.903 0 1.667-.279 2.315-.883zm-5.301 9.94c-.695.373-1.204.86-1.528 1.44-.324.605-.486 1.162-.486 1.696 0 .535.116 1 .37 1.394.255.395.579.72 1.019 1.022.949.627 2.199.952 3.727.952 2.615 0 3.912-.929 3.912-2.787 0-.883-.417-1.603-1.273-2.137-.95-.604-2.593-1.091-4.908-1.44l-.833-.14zM49.074 7.2h8.079v3.437h-1.69c.023 0 .023.024.023.024.463.905.695 1.858.695 2.856 0 1-.162 1.905-.51 2.718a6.489 6.489 0 0 1-1.458 2.137c-1.412 1.323-3.194 1.997-5.37 1.997a9.325 9.325 0 0 1-2.963-.464c-.394.534-.602.952-.602 1.254 0 .325.046.557.139.72.092.186.3.325.625.487.717.326 1.875.628 3.495.883 1.62.256 2.87.58 3.796.952.903.372 1.644.836 2.223 1.394 1.064 1.045 1.597 2.508 1.597 4.436 0 1.904-.672 3.39-2.014 4.413-1.32 1.045-3.31 1.556-5.95 1.556-2.638 0-4.79-.58-6.411-1.742-1.62-1.161-2.454-2.717-2.5-4.645-.07-2.253.81-3.879 2.616-4.878a2.77 2.77 0 0 1-.996-1.44 6.77 6.77 0 0 1-.254-1.904c0-1.208.509-2.206 1.55-3.043-1.203-1.138-1.805-2.578-1.805-4.296 0-1.905.694-3.507 2.06-4.808 1.458-1.37 3.333-2.044 5.625-2.044zm79.398 11.125h-.023V16.77a5.4 5.4 0 0 0-.88-.07h-.625c-2.338 0-3.819.535-4.444 1.603-.185.325-.278.65-.278.999 0 .348.07.673.185.929.116.255.324.487.602.65.556.325 1.366.488 2.454.488a5.949 5.949 0 0 0 3.01-.79v-2.253zm3.935-4.599V24.62h-3.935v-.813c-1.18.535-2.245.813-3.24.813-1.227 0-2.269-.116-3.149-.348-.88-.232-1.62-.58-2.222-1.022-1.227-.929-1.852-2.23-1.852-3.972 0-1.556.764-2.856 2.269-3.878 1.643-1.115 3.866-1.673 6.666-1.673l.649.024c.138 0 .277.023.44.023.161 0 .3.023.44.046-.093-1.718-.811-2.74-2.2-3.019a7.4 7.4 0 0 0-1.458-.14 8.06 8.06 0 0 0-1.505.14c-.486.093-.972.232-1.435.372-1.042.325-1.782.696-2.222 1.138l-.047-.024-.486-3.553c1.899-.999 3.959-1.51 6.18-1.51 3.45 0 5.672 1.254 6.644 3.786.301.79.463 1.696.463 2.717zM109.722 2.555A2.543 2.543 0 0 1 112.27 0a2.543 2.543 0 0 1 2.546 2.555 2.543 2.543 0 0 1-2.546 2.555 2.543 2.543 0 0 1-2.547-2.555zm39.12 13.54c.764.837 1.158 1.951 1.135 3.345 0 1.51-.602 2.74-1.829 3.693-1.25.999-3.032 1.51-5.3 1.51-2.755 0-4.885-.465-6.413-1.37v-4.274c0-.024.093.07.255.255.162.21.463.418.926.697.463.279.972.51 1.574.72 1.273.441 2.616.65 4.004.65 1.875 0 2.801-.627 2.801-1.858a.95.95 0 0 0-.532-.882c-.625-.326-1.574-.581-2.801-.744-1.227-.185-2.245-.418-3.032-.743-.787-.325-1.436-.72-1.922-1.161-.902-.86-1.365-1.974-1.365-3.345 0-1.672.648-2.996 1.944-3.948 1.273-.952 3.032-1.417 5.301-1.417 2.245 0 4.167.627 5.74 1.905-.069.278-.138.557-.23.813a71.59 71.59 0 0 1-.556 1.533l-.37.952a.75.75 0 0 1-.047.14c-.023 0-.093-.117-.255-.35-.694-.789-1.736-1.3-3.17-1.555a6.646 6.646 0 0 0-1.367-.14c-1.967 0-2.94.58-2.94 1.765 0 .395.186.72.602.93.764.418 1.83.72 3.149.905 1.342.21 2.337.465 3.032.79.694.325 1.25.72 1.667 1.184zm-48.009-.023c.672-.65 1.019-1.44 1.019-2.346 0-.905-.301-1.649-.926-2.206-.602-.557-1.458-.836-2.546-.836-1.806 0-2.963.673-3.473 1.997-.162.395-.231.79-.231 1.185s.093.766.255 1.138c.162.348.416.673.74.975.718.65 1.667.976 2.848.976.902 0 1.666-.279 2.314-.883zm-5.3 9.94c-.695.373-1.204.86-1.528 1.44-.324.605-.486 1.162-.486 1.696 0 .535.115 1 .37 1.394.255.395.579.72 1.018 1.022.95.627 2.2.952 3.727.952 2.616 0 3.912-.929 3.912-2.787 0-.883-.416-1.603-1.273-2.137-.949-.604-2.592-1.091-4.907-1.44l-.834-.14zM98.38 7.2h8.078v3.437h-1.69c.024 0 .024.024.024.024a6.19 6.19 0 0 1 .694 2.856c0 1-.162 1.905-.51 2.718a6.489 6.489 0 0 1-1.457 2.137c-1.413 1.323-3.195 1.997-5.37 1.997a9.325 9.325 0 0 1-2.964-.464c-.393.534-.602.952-.602 1.254 0 .325.047.557.14.72.092.186.3.325.624.487.718.326 1.875.628 3.496.883 1.62.256 2.87.58 3.796.952.903.372 1.643.836 2.222 1.394 1.065 1.045 1.597 2.508 1.597 4.436 0 1.904-.671 3.39-2.014 4.413-1.319 1.045-3.31 1.556-5.949 1.556s-4.791-.58-6.412-1.742c-1.62-1.161-2.453-2.717-2.5-4.645-.07-2.253.81-3.879 2.616-4.878a2.77 2.77 0 0 1-.995-1.44 6.77 6.77 0 0 1-.255-1.904c0-1.208.51-2.206 1.551-3.043-1.204-1.138-1.806-2.578-1.806-4.296 0-1.905.695-3.507 2.06-4.808 1.46-1.37 3.335-2.044 5.626-2.044zM19.745 23.226a.39.39 0 0 0 .394-.395v-9.128H10.116a.39.39 0 0 0-.394.395v8.733c0 .209.185.395.394.395h9.63zm3.125 6.503c.162 0 .324.046.463.14l2.963 2.09a.5.5 0 0 0 .787-.418V14.609a.822.822 0 0 0-.81-.813h-3.171v11.66c0 .44-.37.812-.81.812H7.778a.822.822 0 0 1-.81-.813V11.683a.82.82 0 0 1 .81-.813h12.407V8.222a.822.822 0 0 0-.81-.813H3.796c-.44 0-.81.372-.81.813v20.67c0 .442.37.814.81.814H22.87v.023zM27.176 36a.833.833 0 0 1-.463-.14l-4.421-3.135a.833.833 0 0 0-.463-.14H3.657C1.644 32.586 0 30.938 0 28.894V8.083C0 6.039 1.644 4.39 3.657 4.39H19.33c2.014 0 3.657 1.649 3.657 3.693v2.694h3.218c2.014 0 3.657 1.649 3.657 3.693v20.717c0 .441-.37.813-.81.813h-1.875z"/></svg>