<svg height="60" width="60" xmlns="http://www.w3.org/2000/svg"><g fill="none" fill-rule="evenodd"><path d="M32.805 9c-12.232.249-25.05 7.08-25.05 19.586 0 12.823 5.795 22.803 23.512 22.803s22.752-10.2 22.752-20.868S45.036 8.751 32.805 9z" fill="#eff1fa"/><path d="M12.128 36.49c.955-2.194 2.857-3.364 7.321-3.364s4.333.97 11.752 3.119 11.46-.715 14.445-.715c1.99 0 3.638.801 4.944 2.404 1.138-.422 2.286-.268 3.443.46 1.158.727 1.79 1.693 1.898 2.898-9.188 7.208-16.617 11.32-22.287 12.335C25.14 55.15 9.898 49.3 8.711 48.523c-1-.655-6.928-8.368-6.446-11.77.09-.634 9.713.083 9.863-.262z" fill="#fff"/><path d="M36.47 37.934c1.133-1.683 5.2-2.408 8.91-1.646s7.536.918 5.74 3.586c-1.796 2.668-7.28 6.087-11.492 5.223-4.21-.865-4.29-5.48-3.158-7.163z" fill="#c7cef9"/><g stroke="#2a2f54" stroke-linecap="round" stroke-linejoin="round" stroke-width="2"><path d="M5.117 36.753a66.91 66.91 0 0 0 2.35-.087m3.594-.49c1.047-.257 1.802-.598 2.263-1.023 1.64-1.512 3.872-2.609 6.315-2.775 4.35-.296 5.431 1.258 9.586 2.775 4.154 1.516 5.378 1.148 6.943 2.667s2.266 4.218 1.17 5.171c-.527.46-1.996.564-5.813-.832-.978-.358-2.829-.88-5.552-1.568"/><path d="M9.84 50.536c1.74-.3 3.362-.451 4.866-.451 3.322 0 4.918 2.19 13.823 3.383 8.904 1.193 25.659-10.346 26.733-11.31 1.074-.963.088-4.807-4.39-3.065-2.985 1.162-5.957 1.982-8.916 2.462m-1.282-4.932c1.655-.429 2.914-.667 3.779-.714s1.952.065 3.263.336"/></g><g><path d="M28.098 21.825c-3.042-2.286-3.35-7.447-.687-11.528 2.662-4.08 7.286-5.536 10.327-3.25 3.042 2.286 3.35 7.447.687 11.528-2.662 4.08-7.286 5.536-10.327 3.25z" fill="#fff"/><path d="M32.418 23.992c-3.042-2.286-3.35-7.448-.687-11.528 2.662-4.081 7.286-5.536 10.327-3.25 3.042 2.286 3.35 7.447.687 11.528s-7.286 5.536-10.327 3.25z" fill="#fadfad"/><path d="M30.665 17.31c1.803-4.274 10.1-6.048 12.241-4.706 2.14 1.341 1.531 4.964-1.073 7.955-2.605 2.991-5.11 3.45-7.547 3.348-2.438-.104-5.425-2.323-3.621-6.597z" fill="#ffb243"/><path d="M29.132 21.779c-3.042-2.286-3.35-7.447-.687-11.528C31.107 6.17 35.73 4.715 38.772 7c3.042 2.286 3.35 7.447.687 11.528-2.662 4.08-7.286 5.536-10.327 3.25z" stroke="#2a2f54" stroke-width="2"/></g></g></svg>