<svg height="60" width="60" xmlns="http://www.w3.org/2000/svg"><g fill="none" fill-rule="evenodd"><path d="M10.205 18.988C3.503 30.142 4.741 42.11 16.648 49.265s29.17 7.124 38.26-8.006C64 26.13 50.488 14.066 40.582 8.114s-23.674-.28-30.377 10.874z" fill="#eff1fa"/><path d="M9.514 10.617c-1.763.742-2.585 22.027-.652 23.924 1.932 1.898 13.807-1.087 15.517.004 1.709 1.09 4.846 8.783 8.154 8.784 3.309 0 4.493-6.72 5.703-8.78 1.21-2.061 20.865 1.1 17.578-2.757S11.277 9.874 9.514 10.617z" fill="#fff"/><path d="M38.574 34.55c1.167 1.963-.378 8.55-3.087 8.026-1.001-.193-3.778-3.432-6.872-7.57-4.009.33-6.577.216-7.705-.346-1.113-.553-1.443-2.868-2.188-8.482-.353-2.667-1.156-6.158-1.38-8.99-.095-.315-.123-.545-.074-.677a.242.242 0 0 1 .03-.056c-.078-1.862.161-3.35 1.054-3.98 2.305-1.627 34.14 16.467 34.824 19.571.357 1.623-3.44 2.369-11.393 2.237l-3.151.06-.058.207z" fill="#caddff"/><path d="M17.292 21.976c.34-1.383 16.89 15.37 18.119 17.397 1.229 2.026-.696 7.45-2.846 6.996-2.15-.453-15.614-23.01-15.273-24.393z" fill="#6888fb"/><g stroke="#2a2f54" stroke-width="2"><path d="M13.113 15.849c-.876.676 17.13 25.054 19.356 27.003 2.227 1.948 5.438-7.222 3.686-8.583-1.751-1.36-22.167-19.096-23.042-18.42z" stroke-linecap="square"/><path d="M23.54 35.788c-7.802 1.734-12.297 2.437-13.483 2.108-1.78-.494-2.335-26.453-1.45-27.758.886-1.304 13.579 5.558 19.051 7.984 18.111 8.028 27.95 12.812 28.643 14.37.892 2.006-4.574 2.57-16.4 1.691" stroke-linecap="round" stroke-linejoin="round"/></g><g stroke="#2a2f54" stroke-linecap="round" stroke-width="2"><path d="M42 41l3 3.429m-5 1.957l6.514 8.403"/></g></g></svg>