<svg height="60" width="60" xmlns="http://www.w3.org/2000/svg"><g fill="none" fill-rule="evenodd"><path d="M15.335 11.01C4.49 19.628.133 34.43 8.902 44.88c8.77 10.45 24.965 15.811 38.553 4.41s6.374-28.955.359-37.086c-6.016-8.13-21.634-9.813-32.479-1.194z" fill="#eff1fa"/><path d="M8.954 27.247c-1.736 1.283 2.094 19.139 4.559 20.886 2.464 1.747 31.985.627 34.108 0 2.124-.628 5.76-20.477 4.407-20.886-1.353-.41-9.235 4.603-11.016 3.961-1.782-.642-8.259-13.796-10.524-13.796s-9.741 14.421-11.674 14.421c-1.933 0-8.124-5.87-9.86-4.586z" fill="#fff"/><path d="M12.134 30.775c0 3.02 4.902 18.148 6.576 19.703 1.673 1.555 22.903 1.604 26.114 0s7.23-16.87 6.065-19.703c-1.165-2.833-6.575 1.384-9.673 1.384s-7.698-14.502-10.658-14.11-9.361 14.8-11.848 14.8-6.576-5.095-6.576-2.074z" fill="#fadfad"/><path d="M30.53 19.82c-2.55 2.284 2.548 27.273 3.963 28.691 1.415 1.418 12.943.87 14.464-.262 1.52-1.13 3.345-18.081 2.153-19.722-1.193-1.642-6.517 1.626-8.835.989-2.318-.637-9.197-11.978-11.745-9.695z" fill="#ffc251"/><path d="M28.405 19.473c-3.126 3.41-8.065 11.512-9.59 11.512-1.207 0-4.073-2.147-6.479-3.467m-3.544 2.426c.834 5.778 4.534 17.18 6.426 18.44 2.255 1.5 27.513 1.613 30.27 0 2.103-1.232 5.59-12.988 6.526-18.667m-3.126-2.076c-2.86 1.237-6.7 3.155-7.876 2.757-1.387-.468-5.66-7.727-8.555-10.92" stroke="#2a2f54" stroke-linecap="round" stroke-linejoin="round" stroke-width="2"/><path d="M26.627 31c-1.094-.208-5.922 4.28-5.922 5.702s4.518 5.978 5.922 5.978 5.76-4.558 5.76-5.978-5.066-5.57-5.76-5.702z" fill="#fff"/><path d="M31.46 31.412c-1.33 0-4.222 3.954-4.222 5.348s3.013 5.28 4.273 5.28 4.172-3.644 4.172-5.159c0-1.515-2.89-5.47-4.222-5.47z" fill="#ff8e8e"/><path d="M30.309 31c-1.094-.208-5.923 4.28-5.923 5.702s4.52 5.978 5.923 5.978c1.403 0 5.76-4.558 5.76-5.978s-5.066-5.57-5.76-5.702z" stroke="#2a2f54" stroke-linecap="round" stroke-linejoin="round" stroke-width="2"/><circle cx="29.5" cy="14" fill="#fff" r="3" stroke="#2a2f54" stroke-width="2"/><circle cx="30.5" cy="15" fill="#ffcb6b" r="2"/><circle cx="29.5" cy="14" r="3" stroke="#2a2f54" stroke-width="2"/><circle cx="53.5" cy="23.5" fill="#fff" r="2.5" stroke="#2a2f54" stroke-width="2"/><ellipse cx="54" cy="24.5" fill="#ffcb6b" rx="2" ry="1.5"/><circle cx="53.5" cy="23.5" r="2.5" stroke="#2a2f54" stroke-width="2"/><circle cx="7.5" cy="24.5" fill="#fff" r="2.5" stroke="#2a2f54" stroke-width="2"/><ellipse cx="8" cy="25.5" fill="#ffcb6b" rx="2" ry="1.5"/><circle cx="7.5" cy="24.5" r="2.5" stroke="#2a2f54" stroke-width="2"/></g></svg>