<svg xmlns="http://www.w3.org/2000/svg" width="167" height="45"><path fill="#7F8599" fill-rule="evenodd" d="M64.69 17.205c3.231 0 4.465 2.34 4.465 5.851v7.912h-4.8v-7.294c0-1.215-.196-2.395-1.302-2.395-1.023 0-1.501 1.82-1.501 2.995v6.697h-4.888v-7.297c0-1.555-.219-2.395-1.309-2.395-.944 0-1.494 1.675-1.494 2.995v6.694h-4.869V17.514h3.567s.234 1.007-.074 2.324c-.157.669-.445 1.238-.097 1.238.24 0 .24-.2.553-.917.457-1.047 1.42-2.954 3.67-2.954 2.14 0 3.148 1.304 3.482 2.525.254.928.032 1.346.342 1.346.22 0 .296-.481.568-1.09.486-1.09 1.546-2.781 3.687-2.781zm82.638 0c3.231 0 4.465 2.34 4.465 5.851v7.912h-4.8v-7.294c0-1.215-.196-2.395-1.301-2.395-1.024 0-1.502 1.82-1.502 2.995v6.697h-4.888v-7.297c0-1.555-.219-2.395-1.309-2.395-.944 0-1.494 1.675-1.494 2.995v6.694h-4.87V17.514h3.568s.235 1.007-.074 2.324c-.157.669-.445 1.238-.097 1.238.24 0 .24-.2.553-.917.457-1.047 1.42-2.954 3.67-2.954 2.238 0 3.125 1.31 3.482 2.525.24.814.032 1.346.342 1.346.22 0 .296-.481.568-1.09.486-1.09 1.546-2.781 3.687-2.781zM76.283 27.823c1.24-.286 2.221-1.835 2.221-2.289 0 0-.647-.06-1.335-.06-1.56 0-2.654.425-2.654 1.485 0 .774.604 1.134 1.768.864zm1.185-10.615c4.42 0 5.878 3.008 5.878 7.142v6.62h-3.67c-.17-.68-.22-1.49-.197-2.56.013-.611.102-.908-.163-.908-.233 0-.28.414-.54 1.028-.374.885-1.59 2.75-4.358 2.75-1.897 0-4.148-1.15-4.148-3.901 0-2.9 2.003-4.71 5.971-4.71 1.684 0 2.236.147 2.236.147.087-.86-.148-1.895-2.061-1.895-2.398 0-5.353 1.705-5.353 1.705v-4.043s2.676-1.375 6.405-1.375zM91.365 30.97V13.44h4.87v17.53h-4.87zm10.228-6.727c0 1.26.846 2.346 3.2 2.346 2.222 0 3.85-1.132 4.433-1.46v4.444s-1.846 1.707-4.942 1.707c-3.964 0-6.752-2.585-6.752-7.246 0-4.662 3.072-6.827 6.762-6.827 3.5 0 4.924 1.375 4.924 1.375v4.679c-.404-.246-2.207-1.328-4.448-1.328-2.057 0-3.177 1.1-3.177 2.31zm17.488-7.036c3.882 0 4.452 3.188 4.452 6.642v7.12h-4.868v-7.413c0-1.52-.318-2.275-1.334-2.275-1.227 0-1.66 1.905-1.66 2.995v6.694h-4.87V13.44h4.204s.202.503.202 2.004c0 2.213-.48 4.013-.707 4.7-.12.363-.334.924-.027.934.177.006.284-.262.501-.727.216-.465 1.288-3.144 4.107-3.144zm6.035.325s.828.48 2.44.48c1.61 0 2.429-.48 2.429-.48V30.97h-4.87V17.533zm2.42-4.228c1.646 0 2.98.874 2.98 1.952 0 1.077-1.334 1.95-2.98 1.95s-2.98-.873-2.98-1.95c0-1.078 1.334-1.952 2.98-1.952zM84.92 17.533s.829.48 2.44.48c1.61 0 2.429-.48 2.429-.48V30.97H84.92V17.533zm2.42-4.228c1.646 0 2.98.874 2.98 1.952 0 1.077-1.334 1.95-2.98 1.95s-2.98-.873-2.98-1.95c0-1.078 1.334-1.952 2.98-1.952zm72.79 14.775c1.36 0 1.893-1.16 1.893-3.4 0-2.152-.577-3.398-1.933-3.398-1.055 0-1.9 1.476-1.9 3.398 0 1.98.822 3.4 1.94 3.4zm1.335-10.875c3.232 0 5.353 2.462 5.353 7.038 0 4.037-1.772 7.025-5.293 7.025-1.645 0-2.712-1.048-3.288-2.028v5.443h-4.87V17.514h3.568s.234 1.007-.074 2.324c-.157.669-.445 1.238-.097 1.238.24 0 .223-.208.553-.917.499-1.072 1.646-2.954 4.148-2.954zM15.864 12.642c-.06.069.028.166.102.112 1.446-1.055 3.428-2.036 6.025-2.671 2.91-.712 5.71-.414 7.422-.02.085.02.14-.13.063-.172-1.13-.636-2.866-1.068-4.097-1.077a.075.075 0 0 1-.058-.12c.213-.287.504-.57.77-.776.06-.046.024-.143-.05-.138-1.754.108-3.752.95-4.9 1.735-.057.039-.13-.012-.117-.08.09-.432.372-1.002.519-1.269.034-.062-.033-.132-.097-.1-1.847.948-3.908 2.636-5.582 4.576zm15.244 19.621s-2.745 1.279-7.104-.074c.121 1.026 1.118 1.486 1.594 1.671a7.154 7.154 0 0 0 1.255.342c5.402.932 10.451-2.165 11.588-2.946.086-.058.142-.001.074.102-.066.1-.07.106-.112.16-1.391 1.8-5.132 3.885-10 3.884-2.122 0-4.243-.75-5.022-1.903-1.209-1.789-.06-4.399 1.954-4.127l.882.1c2.517.281 6.16-.073 9.164-1.471 2.748-1.28 3.785-2.687 3.63-3.827a1.64 1.64 0 0 0-.474-.932c-.493-.484-1.277-.862-2.597-1.234-.437-.123-.733-.201-1.052-.306-.567-.188-.847-.339-.91-1.408a303.27 303.27 0 0 1-.14-2.771c-.051-1.18-.192-2.793-1.19-3.46a1.668 1.668 0 0 0-.853-.273c-.298-.014-.447.04-.507.05-.57.096-.906.4-1.326.752-1.245 1.04-2.295 1.21-3.464 1.16-.698-.03-1.438-.139-2.286-.19-.165-.009-.331-.02-.497-.028-1.957-.1-4.056 1.596-4.405 4.003-.486 3.352 1.934 5.084 2.633 6.1.09.122.192.293.192.456 0 .194-.126.348-.249.48-1.996 2.06-2.635 5.332-1.883 8.06.094.34.214.666.354.977 1.766 4.138 7.243 6.066 12.594 4.313a13.123 13.123 0 0 0 2.033-.862c1.2-.59 2.249-1.4 3.113-2.333 1.42-1.488 2.264-3.106 2.592-5.099.161-1.067-.075-1.48-.396-1.678-.34-.21-.748-.137-.748-.137s-.186-1.275-.712-2.434c-1.56 1.234-3.567 2.102-5.096 2.542a20.578 20.578 0 0 1-6.815.74c-1.478-.12-2.455-.553-2.823.645 3.376 1.24 6.949.71 6.949.71.07-.008.13.043.138.112a.134.134 0 0 1-.078.134zM7.165 21.873c1.93-5.196 5.152-9.984 9.417-13.278 3.166-2.648 6.58-4.548 6.58-4.548s-1.84-2.138-2.394-2.296C17.353.825 9.976 5.928 5.267 12.67 3.36 15.398.633 20.228 1.937 22.713c.16.308 1.07 1.099 1.559 1.507.817-1.19 2.153-2.052 3.67-2.348zm2.548 11.4c2.468-.422 3.114-3.11 2.707-5.751-.46-2.982-2.47-4.033-3.834-4.107-.38-.02-.732.014-1.023.072-2.435.493-3.81 2.571-3.54 5.271.245 2.443 2.71 4.503 4.99 4.564.236.006.47-.01.7-.05zm30.899-4.781c.643 0 1.652.742 1.652 2.534 0 1.782-.737 3.801-.91 4.25-2.657 6.384-8.997 9.939-16.549 9.714-7.04-.21-13.045-3.936-15.673-10.011-1.59.001-3.227-.7-4.472-1.806-1.312-1.166-2.122-2.675-2.28-4.249-.122-1.226.028-2.365.41-3.36L1.316 24.31C-5.438 18.59 15.685-4.96 22.44.95c.034.03 2.298 2.259 2.304 2.264l1.255-.534C31.924.219 36.733 1.407 36.74 5.334c.003 2.042-1.295 4.423-3.373 6.583.753.701 1.357 1.797 1.703 3.05.29.925.342 1.864.368 2.466.036.832.076 2.77.08 2.805.053.016.653.181.835.233 1.59.448 2.722 1.044 3.275 1.627.554.583.828 1.146.928 1.808.093.533.08 1.475-.62 2.529 0 0 .18.396.355.958.175.563.302 1.03.322 1.099zm-8.82-7.224c-.25-.319-.473-.834-.598-1.436-.223-1.07-.2-1.847.424-1.947.624-.101.925.547 1.148 1.618.15.72.122 1.382-.045 1.765a3.606 3.606 0 0 0-.93 0zm-5.355.848c-.447-.197-1.026-.416-1.726-.373-.991.06-1.851.497-2.098.469-.104-.015-.149-.06-.162-.12-.04-.184.243-.488.541-.708.905-.652 2.077-.793 3.06-.368.48.205.934.57 1.154.932.107.174.127.31.058.38-.107.114-.381-.016-.827-.212zm-.898.513c.8-.095 1.387.28 1.523.501.059.095.036.158.017.187-.064.1-.202.082-.495.049-.528-.06-1.062-.096-1.87.195 0 0-.295.118-.426.118a.14.14 0 0 1-.096-.036.135.135 0 0 1-.044-.107c-.001-.12.107-.29.283-.443.206-.18.526-.371 1.108-.464zm4.444 1.887c-.394-.195-.6-.586-.458-.875.141-.289.576-.365.97-.17.395.194.6.586.46.874-.142.289-.577.365-.972.17zm2.538-2.224c.32.005.574.367.567.808-.007.441-.273.794-.594.789-.32-.006-.575-.367-.567-.809.007-.44.273-.794.594-.788zm-21.538 7.953c.03.032.075.108.021.233-.09.212-.45.5-.963.481-.528-.04-1.115-.426-1.195-1.384-.04-.474.139-1.05.249-1.351.212-.583.02-1.194-.477-1.52a1.284 1.284 0 0 0-1.785.373c-.152.238-.245.535-.294.695a2.096 2.096 0 0 1-.032.098c-.112.301-.29.39-.411.373-.057-.008-.136-.046-.186-.184-.138-.377-.027-1.446.683-2.23a2.142 2.142 0 0 1 1.839-.666c.713.091 1.306.524 1.67 1.218.483.923.053 1.892-.204 2.47-.028.063-.054.12-.075.173-.162.384-.17.72-.024.944.112.173.312.274.548.279a1.2 1.2 0 0 0 .299-.042c.127-.03.258-.06.337.04z"/></svg>