<svg height="360" viewBox="0 0 450 360" width="450" xmlns="http://www.w3.org/2000/svg"><g fill="none" fill-rule="evenodd"><g opacity=".618" transform="translate(67 90)"><path d="m6.22 5.318c3.866-1.785 61.065-.251 121.156 0 78.718.328 158.699-.791 162.572 0 3.874.79 6.03 11.074 1.082 14.794-2.6 1.953-79.477.244-153.416 0-66.842-.221-129.6.73-132.12-1.054-3.486-2.47-4.274-11.432.726-13.74z" fill="#f7f8ff"/><g stroke="#b0b7db" stroke-width="2"><path d="m187.781 185c-23.04-.071-39.59-.123-49.645-.157m-107.76-.472c-18.59-.154-25.938 1.629-28.164-.502-2.225-2.132-3.618-176.582.463-180.449 2.648-2.51 56.063-3.3 116.193-3.194m111.42 1.078c34.411.618 59.1 1.408 60.445 2.116 4.599 2.42 1.267 97.755 1.267 115.296m0 6.403v8.484m-285-112.603h121.4m95.532 0h62.068" stroke-linecap="round"/><circle cx="11" cy="12" r="3"/><circle cx="23" cy="12" r="3"/><circle cx="35" cy="12" r="3"/></g></g><g stroke="#cfd3e9" stroke-width="2"><path d="m259.8 268.623v-56.623a2 2 0 0 1 2-2h66.2a2 2 0 0 1 2 2v27.1" stroke-linecap="round"/><path d="m273.999 236.637-.188 5.558v3.222c5.775.827 10.806 1.103 15.091.827 6.428-.413 16.176 1.429 20.946 1.354s8.34-.764 8.34-2.181c0-.945-2.866-2.1-8.6-3.465-13.017-6.203-19.913-9.46-20.686-9.77-1.16-.465-3.243-.653-3.664 0-.422.653.421 5.391-3.232 6.795-2.436.936-5.105.156-8.007-2.34z"/><path d="m295.547 235.61-.905 2.805m4.352-1.375-.73 2.887m4.528-.247-.14 1.76" stroke-linecap="round"/><path d="m273.848 236.16c-1.482-2.29-2.073-3.883-1.772-4.778.451-1.343 2.416-1.986 3.258-.632.561.902.304 2.706-.772 5.41z"/><g stroke-linecap="round"><path d="m274.47 245.376c-.51.057-1.022.288-1.534.694-1.783 1.416-.718 4.858.696 5.516.942.439 4.975.439 12.1 0 6.326-.056 11.081-.056 14.265 0m-122.097 17.037v-55.623a3 3 0 0 1 3-3h64.2a3 3 0 0 1 3 3v55.623m-152.1 0v-56.623a2 2 0 0 1 2-2h34.27m26.71 0h5.22a2 2 0 0 1 2 2v8.156"/><path d="m110.55 236.152c-1.126-.412-2.107-.807-2.433-1.172-.82-.917 2.798-7.88 6.777-9.924.976-.501 6.196-.871 7.509-.196.329.17.63.531.95.977"/></g></g><g stroke="#cfd3e9" stroke-width="2" transform="translate(96 140)"><rect height="59" rx="2" width="70.2" x="163.8"/><rect height="59" rx="2" width="70.2" x="81.9"/><path d="m7.849 59h-5.849a2 2 0 0 1 -2-2v-10.872m0-31.44v-12.688a2 2 0 0 1 2-2h4.31m54.358 0h7.532a2 2 0 0 1 2 2v29.271" stroke-linecap="round"/><path d="m179 24.924c-.819-.917 2.798-7.88 6.777-9.924.976-.501 6.196-.871 7.509-.195 1.312.675 2.187 4.393 5.515 4.393 3.327 0 4.23-3.611 5.704-4.393 1.473-.783 4.957-1.547 7.66.195s6.584 7.803 6.584 8.649-5.64 3.533-5.64 4.379 2.392 19.056.985 19.898-27.29.842-28.317 0c-1.026-.842 1.027-18.814 0-19.898-1.026-1.085-5.958-2.188-6.777-3.104z"/></g><path d="m143.055 208.394c-1.551 1.44-.298 4.344-1.301 8.253-.67 2.606-1.767 5.086-3.292 7.438 4.804 3.258 8.949 4.785 12.435 4.582 3.486-.204 6.819-2.168 9.998-5.893-1.84-3.237-3.324-6.284-4.454-9.14-1.696-4.284-.044-6.593-2.712-7.571s-9.124.891-10.674 2.331z" fill="#f2d8d7"/><path d="m143.226 207.52c-2.393 2.29-2.926 10.84-1.415 12.454 1.512 1.615 13.634-7.938 12.56-12.454-1.073-4.516-8.752-2.29-11.145 0z" fill="#f5b9b7"/><path d="m158.972 220.394c-2.861-5.213-5.292-12.606-7.305-24.394l-13.246 4.12c1.124 13.559 1.124 14.58 0 18.88-.267 1.023-.57 1.795-.957 2.47" stroke="#2a2f54" stroke-linecap="round" stroke-width="2"/><path d="m117.49 187.605-7.49-1.958c5.684-.676 4.377-1.338 7.103.88a45.778 45.778 0 0 1 -1.819-7.099c-3.2-18.492 5.242-35.466 18.857-37.911 13.615-2.446 22.91 7.947 27.744 30.237s-2.537 34.284-16.152 36.73c-11.502 2.065-23.016-6.898-28.243-20.879z" fill="#fff"/><path d="m159.448 162.649c.91 2.773 1.722 5.809 2.437 9.105 4.834 22.29-2.537 34.284-16.152 36.73-6.695 1.202-13.394-1.332-18.855-6.417" stroke="#2a2f54" stroke-linecap="round" stroke-width="2"/><path d="m118 177.226c1.253 9.435 3.78 16.693 7.583 21.774 5.702 7.62 23.891 11.601 31.154 0s2.467-31.706-.737-40.374c-2.136-5.779-8.403-9.94-18.8-12.484-3.275 9.247-6.282 16.088-9.022 20.524s-6.133 7.956-10.178 10.56z" fill="#f2d8d7"/><g transform="translate(130 158)"><circle cx="21" cy="10" fill="#2a2f54" r="2"/><circle cx="2.599" cy="14" fill="#2a2f54" r="2"/><path d="m14.27 26.38c4.393-.811 5.525-2.966 4.994-4.778-.531-1.813-2.662-4.635-6.375-8.703m-5.889 19.101a8.002 8.002 0 0 0 14.578.465m-3.33-31.405c1.1-.412 2.141-.467 3.125-.167.983.3 1.844.986 2.584 2.057" stroke="#2a2f54" stroke-linecap="round" stroke-width="2"/></g><path d="m123.364 171.066c.907 9.87 1.708 15.849 2.403 17.934 4.485 13.459 8.246 13.54 9.274 15.474 1.9 3.576-10.68-3.663-14.32-9.706-2.426-4.028-3.9-9.618-4.422-16.768z" fill="#f5b9b7"/><path d="m264.943 329.222c-38.3 2.58-58.067 3.133-59.298 1.656-1.848-2.216 58.567-19.878 59.298-19.878h51.862z" fill="#e9ecfe"/><path d="m207.281 330.127c0-1.192 47.52-10.345 58.484-10.513 10.965-.168 12.409 6.929-2.786 9.66-15.195 2.732-55.698 2.045-55.698.853z" fill="#cbd2ff"/><path d="m242 295.173c3.114-.693 11.48-.346 25.097 1.04l13.787 11.317v2.255l2.392 6.213-5.485 1.612-10.716-11.418c-3.327-.786-4.806-.34-4.437 1.338.554 2.515 5.773 4.286 6.47 7.163.465 1.919-2.533 1.162-8.994-2.269l-6.76-4.894c-6.236-1.393-10.354-2.602-12.354-3.627-3-1.537-3.671-7.69 1-8.73z" fill="#f2d8d7"/><path d="m124.62 228.667c-7.062 3.994-13.376 14.36-16.137 20.333-6.523 14.115-17.184 71.908-7.981 83.325 6.135 7.612 94.17-16.987 95.636-18.283 1.465-1.296 1.338-16.793 0-18.455-1.338-1.663-25.378 2.815-72.12 13.433 1.656-9.449 2.995-17.623 4.014-24.523m.977-6.954c.3-2.26.552-4.34.76-6.237" fill="#fff"/><path d="m246.959 295.089c-4.884 1.628.225 10.402 6.92 8.17 6.694-2.233 12.284-5.263 11.144-6.775-1.768-2.346-13.18-3.024-18.064-1.395z" fill="#f5b9b7"/><path d="m159.902 236c-2.295 7.903 14.873 64.221 21.344 74.935 6.47 10.713 61.781-.274 62.525-2.161.743-1.887 2.565-14.184 2.184-15.54-.255-.905-14.466-1.75-42.634-2.535-8.614-28.65-16.378-46.466-23.29-53.449-10.37-10.474-17.834-9.153-20.129-1.25z" fill="#fff1d1"/><path d="m191.363 277.429c-1.418-.095-1.452 1.3-2.888 6.057-1.436 4.758-3.64 9.362.778 10.22 4.417.86 11.833 3.64 12.598-.295.31-1.592-3.466-3.638-5.368-6.539-2.797-4.268-4.276-9.387-5.12-9.443z" fill="#ffdb94"/><path d="m111.351 249c6.298-15.12 14.335-23.54 24.11-25.262 3.501-.617 8.45 3.82 15.296 2.583 6.845-1.237 7.679-4.045 9.815-4.045s6.698 3.883 9.924 7.007c2.15 2.083 4.495 4.739 7.034 7.967 7.803 16.015 11.704 28.842 11.704 38.481 0 9.078-4.925 17.77-4.841 24.269.12 9.39 9.015 15.725 4.841 24.142-4.173 8.418-23.615 1.326-55.681 5.348-8.195 1.027-26.553 3.632-29.925-9.09-2.465-9.298.11-33.098 7.723-71.4z" fill="#fff1d1"/><path d="m184.728 297.097-39.761 7.193c9.935-8.824 24.693-15.29 31.7-15.29 7.684 0 8.1 2.933 8.061 8.097zm2.907 19.16c1.459 4.979 2.356 8.635-.546 10.7-3.93 2.794-37.395 9.09-48.51 1.244z" fill="#ffdb94"/><path d="m195.66 296.353c14.114-.08 23.087.839 26.918 2.754 5.746 2.872 13.755 12.9 14.787 14.079 1.033 1.179 1.597 2.806 0 2.806-.935 0-.388 1.99 1.642 5.972a2 2 0 0 1 -1.159 2.809c-1.132.371-2.15.339-3.052-.096-2.138-1.031-5.574-8.685-6.472-8.685-.577 0 .027 3.018 1.81 9.053a1 1 0 0 1 -.619 1.224c-.774.28-1.743.1-2.906-.542-2.43-1.34-3.601-9.321-5.275-10.474-1.115-.769-9.673-2.65-25.673-5.644v-13.256z" fill="#f2d8d7"/><path d="m198.457 296.385c3.158-.9 15.15-.017 19.595 3.087 4.445 3.103-1.898 8.052-4.39 10.796-2.49 2.744-13.187-1.817-15.205-2.91-2.018-1.092-3.158-10.072 0-10.973z" fill="#f5b9b7"/><path d="m264.887 331.26c10.226-42.642 15.953-64.978 17.182-67.006 1.843-3.044 75.878-25.798 78.96-23.254 3.084 2.544-15.65 57.716-17.68 60.29-1.355 1.715-27.508 11.706-78.462 29.97z" fill="#fff"/><path d="m269.887 331.26c9.696-42.642 15.126-64.978 16.292-67.006 1.747-3.044 71.945-25.798 74.868-23.254 2.924 2.544-14.84 57.716-16.765 60.29-1.284 1.715-26.082 11.706-74.395 29.97z" fill="#e9ecfe"/><path d="m264.887 331.26c10.226-42.642 15.953-64.978 17.182-67.006 1.843-3.044 75.878-25.798 78.96-23.254 3.084 2.544-15.65 57.716-17.68 60.29-1.355 1.715-27.508 11.706-78.462 29.97z" stroke="#2a2f54" stroke-linecap="round" stroke-width="2"/><path d="m263.753 331.684c-36.141 1.09-55.122 1.22-56.943.392-1.82-.828 3.156-3.35 14.927-7.566" stroke="#2a2f54" stroke-linecap="round" stroke-linejoin="round" stroke-width="2"/><path d="m183.393 251.876c4.069 10.019 6.103 17.513 6.103 22.483 0 4.336-1.59 14.86-2.9 20.455m3.019 21.749c.222.889.581 2.279 1.077 4.169" stroke="#2a2f54" stroke-linecap="round" stroke-width="2"/><path d="m201 88h85c-1.549 38.925-3.721 59.647-6.517 62.166-4.194 3.779-63.411 3.779-69.703 0-4.195-2.519-7.122-23.241-8.78-62.166z" fill="#fff"/><path d="m208.46 98.529c7.77-1.456 60.431-5.096 65.714-.858s4.59 45.48.751 48.471c-3.839 2.993-53.82 4.42-59.58 1.428-5.759-2.992-14.656-47.586-6.886-49.041z" fill="#ffd8c9"/><path d="m282.307 94.466c-5.68 0-65.258 44.48-63.256 50.068 2.001 5.59 50.315 5.59 55.965 1.898s12.972-51.966 7.291-51.966z" fill="#ffb89c"/><path d="m205.105 97.048c1.46-1.83 78.156-3.327 78.278-1.096.122 2.232 1.806 3.12-.032 5.936s-76.593 1.946-78.281 1.653c-1.688-.292-1.424-4.662.035-6.493z" fill="#ffb89c"/><path d="m285.796 96.972c-1.763 33.37-2.52 49.17-7.396 53.412-4.078 3.547-58.56 3.488-64.853 0-4.194-2.325-10.723-14.453-12.382-50.384" stroke="#2a2f54" stroke-linecap="round" stroke-width="2"/><path d="m191.411 75.465c1.596-1.286 25.735.255 51.857 0 22.402-.219 47.982-2.37 50.396-1.027 2.44 1.356 1.305 14.75-1.518 16.627-1.467.975-96.65 2.654-98.247 1.599-3.325-2.196-5.452-14.81-2.488-17.199z" fill="#fff"/><path d="m194.623 78.334c-1.314 3.25 1.646 12.627 3.377 13.86 1.73 1.233 92.773-.87 94.458-2.268 1.685-1.4 2.11-11.592 0-12.831-2.11-1.24-96.522-2.01-97.835 1.24z" fill="#ffd8c9"/><path d="m217 75.42c2.849.059 5.865.116 9 .16m37.801-.557c15.26-.719 28.181-1.598 29.863-.516 2.44 1.57 1.305 17.078-1.518 19.252-1.467 1.13-96.65 3.073-98.247 1.852-3.325-2.543-5.452-17.148-2.488-19.915.714-.666 5.944-.677 13.847-.512" stroke="#2a2f54" stroke-linecap="round" stroke-width="2"/><g stroke="#2a2f54" stroke-width="3"><path d="m242.45 72.855c-1.158-10.233 10.016-26.818 20.962-16.76 5.955 5.472 1.928 13.873-6.254 16.76-2.67.943-7.572.943-14.707 0z" stroke-linecap="round"/><path d="m238.977 60.55c-11.756-18.368-31.207 2.976-12.548 11.273 5.67 2.521 10.296 1.92 16.188 1.392-.946-6.13-2.159-10.35-3.64-12.665z" stroke-linecap="round"/><path d="m240.881 74.678c-15.222 10.11-26.42 10.555-36.881-8.743m39.434 7.568c27.93-1.209 19.247 16.463 43.214 11.796" stroke-linecap="square"/></g><path d="m243.25 74c.105 26.293.395 51.707.5 78z" stroke="#2a2f54" stroke-width="3"/><path d="m270.706 326.926c-6.703 0 14.943-22.213 24.382-27.525 9.438-5.313 14.696-3.129 30.692-14.528 15.995-11.399 25.235-29.5 28.39-26.284 3.155 3.215-9.625 38.744-12.378 41.7-2.754 2.958-64.383 26.637-71.086 26.637z" fill="#cbd2ff"/><path d="m270.601 324c14.57-6.667 27.327-11.667 38.271-15 10.945-3.333 21.82-7.334 32.628-12.002m-216.88-68.331c-7.062 3.994-13.376 14.36-16.137 20.333-6.523 14.115-17.184 71.908-7.981 83.325 6.135 7.612 94.17-16.987 95.636-18.283 1.465-1.296 1.338-16.793 0-18.455-1.338-1.663-25.378 2.815-72.12 13.433 1.656-9.449 2.995-17.623 4.014-24.523m.977-6.954c.3-2.26.552-4.34.76-6.237m70.373 39.02c12.1 2.407 18.402 3.772 19.52 4.37 1.812.97 6.428 9.998 6.947 10.777.25.374.875.59 1.877.65m.014-9.623 6 8m-1-9 4 9.59m-1-9.59-2.477-4.5m13.672-5.031c3.448.768 5.443 1.302 5.986 1.602s3.082 2.025 7.616 5.175l6.703 3.07c1.338-.125 1.68-.803 1.025-2.034s-1.99-2.423-4.006-3.576m-15.913-15.176c5.156.02 11.709-.29 15.685.84 2.651.753 4.956 2.327 6.916 4.722m-132.753-76.235c4.636 1.842 8.602 2.705 11.897 2.59s6.13-1.216 8.506-3.302" stroke="#2a2f54" stroke-linecap="round" stroke-width="2"/><path d="m164.962 225.114c7.137 5.14 12.16 9.185 15.068 12.136 4.363 4.426 6.264 9.321 9.204 15.988 4.411 10 12.645 36.197 14.551 37.759 1.907 1.562 38.898-.224 40.724 1.337.97.83 1.099 4.546.386 11.148" stroke="#2a2f54" stroke-linecap="round" stroke-linejoin="round" stroke-width="2"/><path d="m118.883 177.636c1.537-8.222 8.015-7.32 11.71-14.136 3.696-6.817 6.02-15.779 6.64-17.397.25-.65 4.74.62 10.256 3.846 2.42 1.415 6.652 4.573 12.697 9.474 0-6.906-1.786-12.093-5.36-15.56-5.36-5.2-12.511-7.863-22.42-7.863-9.91 0-23.14 4.713-28.835 19.26-3.796 9.699-4.34 20.14-1.629 31.322 4.59 10.21 11.768 15.202 21.536 14.975-4.088-10.465-5.62-18.44-4.595-23.92z" fill="#afbaff"/><path d="m101.9 163.679c-1.985 7.38.65 19.974 4.4 28.128s14.469 9.469 16.838 9.956c2.369.488 5.04-1.406-.148-6.523-5.189-5.117-10.116-9.433-3.392-17.203s10.744-13.51 8.836-15.931c-1.908-2.422-10.69 6.198-15.99 6.85-5.3.654-8.56-12.657-10.545-5.277z" fill="#7e8ce6"/><path d="m114.975 175.501c7.434-.16 13.023-3.582 16.766-10.266 5.615-10.026 4.473-17.514 5.104-19.132.253-.65 4.82.62 10.43 3.846 2.46 1.415 6.039 4.776 12.187 9.677 0-6.907-1.093-12.296-4.727-15.762-5.45-5.2-12.722-7.864-22.799-7.864m-22.587 7.053c-3.896 2.85-7.237 6.712-9.362 11.843-4.016 9.699-4.016 20.11 0 31.236 4.854 10.21 12.478 15.352 22.871 15.425" stroke="#2a2f54" stroke-linecap="round" stroke-linejoin="round" stroke-width="2"/><g stroke="#2a2f54" stroke-linecap="round" stroke-width="2"><path d="m118.264 177.888c-4.438-1.016-7.226.375-8.241 3.392-1.523 4.524-.194 8.586 3.064 11.36 2.12 1.806 5.606 2.439 10.426.814" fill="#f5b9b7"/><path d="m115.49 183.373c1.547-.039 2.683.247 3.409.857s1.379 1.86 1.957 3.749m-1.05-2.096-2.101 1.376"/></g><path d="m119.992 141.76c7.86-1.528 12.995-9.14 11.467-17-1.529-7.861-8.59-10.165-16.45-8.637-7.862 1.528-13.546 6.31-12.018 14.17 1.528 7.861 9.14 12.995 17 11.467z" fill="#fff"/><path d="m108.133 129.15c0 3.665 1.444 10.802 6.842 12.944s9.914-.227 14.114-4.627 4.129-10.12-.911-16.576-20.045 1.988-20.045 8.258z" fill="#afbaff"/><g stroke-width="2"><path d="m119.992 141.76c7.86-1.528 12.995-9.14 11.467-17-1.529-7.861-11.965-10.325-17.467-6.286-5.5 4.038-11 4.038-11 11.82 0 7.78 9.139 12.994 17 11.466z" stroke="#2a2f54"/><g stroke="#cfd3e9"><path d="m215 222c-8.775 0-16.37 6.983-16.948 15.567l-1.335 19.828a9 9 0 0 0 8.98 9.605h18.607a9 9 0 0 0 8.98-9.605l-1.336-19.828c-.578-8.584-8.173-15.567-16.948-15.567z"/><path d="m210 225v-3.6c0-2.43 2.015-4.4 4.5-4.4s4.5 1.97 4.5 4.4v3.6" stroke-linecap="round"/><path d="m206.841 245c-1.774 0-3.134 1.127-3.234 2.57l-.603 9.993c-.006.12-.005.24.004.361.129 1.685 1.649 3.076 3.375 3.076h17.235c.126 0 .253-.008.38-.023 1.735-.209 3.083-1.758 2.999-3.407l-.603-9.99c-.101-1.453-1.46-2.58-3.235-2.58z"/><path d="m204.603 249.5h20.897" stroke-linecap="square"/></g><g stroke="#cfd3e9"><path d="m191.999 166.262-.188 5.56v3.221c5.775.827 10.806 1.103 15.091.827 6.428-.413 16.176 1.428 20.946 1.354 4.77-.075 8.34-.764 8.34-2.181 0-.945-2.866-2.1-8.6-3.465-13.017-6.203-19.913-9.46-20.686-9.77-1.16-.465-3.243-.653-3.664 0-.422.653.421 5.391-3.232 6.795-2.436.936-5.105.156-8.007-2.34z"/><path d="m213.547 165.235-.905 2.805m4.352-1.374-.73 2.887m4.528-.247-.14 1.76" stroke-linecap="round"/><path d="m191.848 165.786c-1.482-2.29-2.073-3.883-1.772-4.778.451-1.343 2.416-1.986 3.258-.632.561.902.304 2.706-.772 5.41z"/><path d="m192.47 175.002c-.51.057-1.022.288-1.534.694-1.783 1.415-.718 4.858.696 5.516.942.439 4.975.439 12.1 0 6.326-.056 11.081-.056 14.265 0 4.776.084 5.692.414 9.312.414s7.051-.408 9.018-1.404 2.467-3.342.036-5.636" stroke-linecap="round"/></g><g stroke-linecap="round" transform="translate(193 29)"><circle cx="27.5" cy="9.5" r="2.5" stroke="#ffa683"/><path d="m70 11.533 2-6.533" stroke="#ffc92b"/><path d="m80 19 9.058-6.658m5.228-3.609 5.714-3.733" stroke="#ffa683"/><path d="m102.487 32.45c-1.262.086-2.48-3.98-4.117-3.542-1.637.437-1.324 4.528-2.872 4.36-1.547-.17-2.152-4.178-3.477-4.437-1.325-.26-1.267 3.71-2.945 3.607-1.678-.104-2.12-3.166-3.583-3.056" stroke="#afbaff"/><path d="m2 26h7" stroke="#a5b5f4"/><path d="m.022 4.921c1.847-1.858 3.132-2.57 3.854-2.136 1.084.652-.25 4.682 1.342 5.262 1.59.58 3.68-2.95 4.852-1.924 1.17 1.027-.632 4.657.304 5.63.936.972 3.166-2.314 4.481-1.266 1.315 1.047-.079 3.808 1.183 4.558" stroke="#ffc519"/></g><path d="m313.647 291.655c-1.475-2.071-.937-6.63 1.25-9.302 2.188-2.672 5.553-3.272 7.178-.989 1.626 2.283 1.375 7.297-.799 9.95-2.173 2.654-6.155 2.413-7.63.341z" stroke="#2a2f54"/><path d="m200.704 296.268c11.152.738 17.965 1.537 20.44 2.397 2.474.86 5.886 3.305 10.236 7.335m30.896 1.59c.247-1.29.662-2.032 1.244-2.228.873-.294 2.487-.184 3.864.638.917.548 1.84 1.215 2.768 2" stroke="#2a2f54" stroke-linecap="round" stroke-linejoin="round"/><path d="m132.63 151.574c-2.687 7.021-6.297 12.44-10.83 16.258-4.533 3.817-9.638 5.738-15.316 5.762m134.009 143.88 14.241-4.945" stroke="#2a2f54" stroke-linecap="round"/></g></g></svg>