<svg xmlns="http://www.w3.org/2000/svg" width="500" height="360"><g fill="none" fill-rule="evenodd"><path stroke="#CFD3E9" stroke-linecap="round" stroke-width="2" d="M118.838 298h92.6m79.167 0h60.813m10.52 0h11.703"/><path fill="#F7F8FF" d="M69.89 280.2c-4.18-3.808-6.271-9.692-6.271-17.653 0-11.941 12.35-13.599 12.35-31.734 0-18.136-15.734-26.173-10.846-56.592 4.889-30.418 16.254-46.171 29.596-48.712 13.342-2.54 32.192 5.437 36.085 26.757 3.894 21.32-18.155 40.068-20.194 53.372-2.039 13.303 7.846 19.989 5.23 36.052-2.615 16.064-15.073 19.646-20.015 23.692-3.295 2.697-5.206 7.636-5.733 14.818H69.89z"/><path stroke="#CFD3E9" stroke-linecap="round" stroke-width="2" d="M110.7 243.69c-2.808 16.064-16.187 19.646-21.495 23.692M58.185 275c-2.283-2.953-3.425-6.721-3.425-11.304 0-12.063 14.05-13.737 14.05-32.057s-23.52-31.82-17.96-62.55c4.053-22.392 13.868-33.668 24.768-39.131m6.755-2.66a47.022 47.022 0 0 1 4.787-1.149"/><g transform="translate(127 104)"><path fill="#E9EBF7" d="M97.803 177.628c-2.873 0-4.467 8.413-2.129 10.572 2.338 2.159 57.986 1.408 59.656 0 1.67-1.408-.759-7.699-3.257-9.42-2.497-1.723-51.396-1.152-54.27-1.152z"/><path stroke="#9CA1B2" stroke-width="2" d="M149.215 166.943h-49.122l-10.6 37.982A4 4 0 0 0 93.345 210h62.617a4 4 0 0 0 3.853-5.075l-10.6-37.982z"/><path fill="#FFF" d="M246 174.29a4.84 4.84 0 0 1-4.84 4.84H4.84A4.84 4.84 0 0 1 0 174.29V4.84A4.84 4.84 0 0 1 4.84 0h236.32A4.84 4.84 0 0 1 246 4.84v169.45z"/><path fill="#E9EBF7" d="M126.514 156.391c-2.1.304-5.91 6.538-5.552 8.073.358 1.534 5.877.872 7.193-1.042 1.316-1.913.46-7.335-1.64-7.03z"/><ellipse cx="122.451" cy="160.096" stroke="#9CA1B2" stroke-width="2" rx="4.942" ry="4.945"/><path stroke="#9CA1B2" stroke-linecap="round" stroke-width="2" d="M6 143.612h228"/><path fill="#F6F7FF" d="M10.95 135.486c1.074-5.47 217.18-128.311 225.966-124.984 8.786 3.326 4.547 118.9.197 124.984-4.35 6.083-227.236 5.47-226.163 0z"/></g><path stroke="#9CA1B2" stroke-linecap="round" stroke-width="2" d="M127 128.003V108.84a4.84 4.84 0 0 1 4.84-4.84h72.917M373 122.765v19.329m0 15.154v45.328m0 11.614v12.007m0 42.185v9.908a4.84 4.84 0 0 1-4.84 4.84H131.84a4.84 4.84 0 0 1-4.84-4.84v-34.358m0-91.113v-6.677"/><path stroke="#C0C5D6" stroke-dasharray="6.6" stroke-linecap="round" stroke-linejoin="round" stroke-width="2" d="M287.39 124.761c-.371 6.301-.902 10.796-1.519 11.239-2.182 1.567-183.753 2.31-185.738 0-1.984-2.31-2.207-53 0-57 1.24-2.247 58.638-3.167 109.305-2.935m3.203 80.954c.332-4.362.811-7.386 1.451-8.019 2.931-2.903 183.1-2 185.78 0 2.681 2 2.681 56.816 0 58-1.001.442-26.84.833-58.948 1.045"/><path fill="#FFF" stroke="#2A2F54" stroke-width="2" d="M94.662 166.338c-2.054 1.893-3.467 16.212-3.411 33.236.053 16.38 1.541 30.389 3.15 31.125 4.39 2.01 95.008 3.105 164.153 2.042a9557.809 9557.809 0 0 1 6.777-.102c20.854-.312 30.066-.518 38.911-.966 5.515-.28 9.783-.63 12.844-1.07 3.019-.433 4.843-.986 5.096-1.36 2.013-2.974 2.4-8.405 2.308-23.654a617.87 617.87 0 0 1-.017-6.459l.003-.86.014-2.778c.101-20.01-.314-27.487-2.15-29.148-2.108-1.906-52.708-3.323-113.88-3.323-61.135 0-111.738 1.418-113.798 3.317z"/><path fill="#444656" d="M162.178 196.547c-1.244 0-2.23-.43-2.955-1.288-.726-.86-1.089-2.027-1.089-3.504 0-1.481.362-2.651 1.086-3.51.723-.86 1.707-1.289 2.951-1.289.965 0 1.79.275 2.476.825.686.55 1.096 1.268 1.231 2.152h-1.161c-.152-.592-.457-1.061-.914-1.406s-1.001-.517-1.632-.517c-.88 0-1.577.336-2.091 1.009-.514.673-.771 1.585-.771 2.736 0 1.147.258 2.056.774 2.73.516.672 1.215 1.009 2.095 1.009.639 0 1.186-.154 1.64-.46.456-.307.755-.725.899-1.254h1.161c-.152.842-.563 1.514-1.234 2.015-.67.502-1.493.752-2.466.752zm8.131-6.214c-.546 0-.994.184-1.346.552-.35.368-.548.855-.59 1.46h3.77c-.012-.605-.186-1.092-.52-1.46-.334-.368-.772-.552-1.314-.552zm1.803 4.228h1.092c-.165.588-.5 1.05-1.003 1.386-.504.337-1.13.505-1.88.505-.947 0-1.698-.318-2.253-.955-.554-.637-.831-1.497-.831-2.58 0-1.075.28-1.936.838-2.58.558-.646 1.307-.969 2.247-.969.922 0 1.648.308 2.177.924.53.615.794 1.454.794 2.517v.418h-4.92v.051c.03.677.221 1.215.575 1.613.353.397.82.596 1.4.596.44 0 .808-.08 1.104-.238.296-.158.516-.388.66-.688zm2.882 1.77v-9.56h1.092v9.56h-1.092zm5.865-5.998c-.546 0-.995.184-1.346.552-.351.368-.548.855-.59 1.46h3.77c-.012-.605-.186-1.092-.52-1.46-.334-.368-.772-.552-1.314-.552zm1.803 4.228h1.091c-.165.588-.499 1.05-1.002 1.386-.504.337-1.13.505-1.88.505-.947 0-1.698-.318-2.253-.955-.554-.637-.831-1.497-.831-2.58 0-1.075.279-1.936.838-2.58.558-.646 1.307-.969 2.247-.969.922 0 1.648.308 2.177.924.529.615.793 1.454.793 2.517v.418h-4.92v.051c.03.677.222 1.215.575 1.613.354.397.82.596 1.4.596.44 0 .808-.08 1.105-.238.296-.158.516-.388.66-.688zm6.22 1.891c-.474 0-.904-.107-1.291-.32a2.292 2.292 0 0 1-.905-.892h-.101v1.092h-1.041v-9.56h1.091v3.796h.102c.186-.368.473-.66.86-.876a2.595 2.595 0 0 1 1.285-.324c.872 0 1.568.322 2.089.965.52.643.78 1.502.78 2.577 0 1.07-.26 1.929-.783 2.574-.523.645-1.218.968-2.086.968zm-.254-6.1c-.622 0-1.114.229-1.475.686-.362.457-.543 1.08-.543 1.872 0 .791.18 1.416.543 1.873.361.457.853.685 1.475.685.627 0 1.116-.226 1.467-.679.351-.453.527-1.08.527-1.879 0-.8-.176-1.426-.527-1.879-.351-.453-.84-.679-1.467-.679zm4.761 5.98v-6.843h1.041v1.015h.102c.101-.334.33-.607.685-.818.356-.212.76-.318 1.213-.318a4.747 4.747 0 0 1 .546.032v1.092a4.349 4.349 0 0 0-.698-.063c-.521 0-.95.156-1.29.469-.338.313-.507.71-.507 1.193v4.24h-1.092zm6.983-.838c.562 0 1.029-.164 1.4-.492.37-.328.555-.736.555-1.222v-.629l-1.841.12c-.999.069-1.498.441-1.498 1.118 0 .347.131.618.393.813.263.194.593.292.99.292zm-.203.958c-.665 0-1.216-.183-1.654-.549-.438-.366-.657-.862-.657-1.488 0-1.253.832-1.928 2.495-2.025l1.974-.121v-.622c0-.872-.517-1.308-1.55-1.308-.41 0-.75.074-1.021.222-.27.149-.444.358-.52.629h-1.105c.072-.55.355-.991.85-1.324.496-.332 1.107-.498 1.835-.498.834 0 1.476.202 1.927.606.45.404.676.962.676 1.673v4.685h-1.041v-1.01h-.102a2.25 2.25 0 0 1-.876.838 2.57 2.57 0 0 1-1.231.292zm5.649-8.734h1.092v1.77h1.523v.915h-1.523v3.872c0 .402.08.694.241.876.16.182.419.273.774.273.098 0 .181-.002.251-.007.07-.004.156-.01.257-.019v.92a3.283 3.283 0 0 1-.64.064c-.703 0-1.208-.141-1.515-.425-.307-.284-.46-.751-.46-1.403v-4.151h-1.105v-.914h1.105v-1.771zm6.824 2.615c-.546 0-.995.184-1.346.552-.351.368-.548.855-.59 1.46h3.77c-.013-.605-.186-1.092-.52-1.46-.335-.368-.773-.552-1.314-.552zm1.802 4.228h1.092c-.165.588-.5 1.05-1.003 1.386-.503.337-1.13.505-1.879.505-.948 0-1.699-.318-2.253-.955s-.832-1.497-.832-2.58c0-1.075.28-1.936.838-2.58.559-.646 1.308-.969 2.247-.969.923 0 1.649.308 2.178.924.529.615.793 1.454.793 2.517v.418h-4.92v.051c.03.677.222 1.215.575 1.613.353.397.82.596 1.4.596.44 0 .808-.08 1.104-.238.296-.158.517-.388.66-.688zm8.519.933c.563 0 1.03-.164 1.4-.492.37-.328.555-.736.555-1.222v-.629l-1.84.12c-1 .069-1.499.441-1.499 1.118 0 .347.131.618.394.813.262.194.592.292.99.292zm-.203.958c-.665 0-1.216-.183-1.654-.549-.438-.366-.657-.862-.657-1.488 0-1.253.832-1.928 2.495-2.025l1.974-.121v-.622c0-.872-.516-1.308-1.549-1.308-.41 0-.75.074-1.022.222-.27.149-.444.358-.52.629h-1.105c.072-.55.356-.991.85-1.324.496-.332 1.107-.498 1.835-.498.834 0 1.476.202 1.927.606.45.404.676.962.676 1.673v4.685h-1.041v-1.01h-.102a2.25 2.25 0 0 1-.876.838 2.57 2.57 0 0 1-1.231.292zm12.187 0c-.474 0-.904-.107-1.291-.32a2.292 2.292 0 0 1-.905-.892h-.102v1.092h-1.04v-9.56h1.091v3.796h.102c.186-.368.473-.66.86-.876a2.595 2.595 0 0 1 1.285-.324c.872 0 1.568.322 2.089.965.52.643.78 1.502.78 2.577 0 1.07-.26 1.929-.783 2.574-.523.645-1.218.968-2.086.968zm-.254-6.1c-.622 0-1.114.229-1.475.686-.362.457-.543 1.08-.543 1.872 0 .791.18 1.416.543 1.873.361.457.853.685 1.475.685.627 0 1.116-.226 1.467-.679.351-.453.527-1.08.527-1.879 0-.8-.176-1.426-.527-1.879-.351-.453-.84-.679-1.467-.679zm4.787 5.98v-6.843h1.091v6.843h-1.091zm.545-8.233a.732.732 0 0 1-.536-.226.732.732 0 0 1-.225-.536.73.73 0 0 1 .225-.54.738.738 0 0 1 .536-.222c.212 0 .392.074.54.222a.735.735 0 0 1 .222.54.738.738 0 0 1-.222.536.73.73 0 0 1-.54.226zm2.552 8.233v-6.843h1.041v1.015h.102c.101-.334.33-.607.685-.818.356-.212.76-.318 1.213-.318a4.747 4.747 0 0 1 .546.032v1.092a4.349 4.349 0 0 0-.698-.063c-.521 0-.95.156-1.29.469-.338.313-.507.71-.507 1.193v4.24h-1.092zm5.713-8.614h1.092v1.77h1.523v.915h-1.523v3.872c0 .402.08.694.241.876.16.182.42.273.775.273.097 0 .18-.002.25-.007.07-.004.156-.01.257-.019v.92a3.283 3.283 0 0 1-.64.064c-.703 0-1.208-.141-1.515-.425-.306-.284-.46-.751-.46-1.403v-4.151h-1.104v-.914h1.104v-1.771zm4.253 8.614v-9.56h1.092v3.796h.101c.174-.377.437-.67.79-.882.354-.212.793-.318 1.318-.318.723 0 1.298.221 1.723.663.426.443.638 1.066.638 1.87v4.43h-1.092v-4.164c0-.605-.134-1.059-.403-1.361-.268-.303-.66-.454-1.177-.454-.614 0-1.084.177-1.41.53-.325.353-.488.82-.488 1.4v4.05h-1.092zm10.112.12c-.876 0-1.574-.322-2.095-.965-.52-.643-.78-1.502-.78-2.577s.262-1.934.786-2.577c.525-.643 1.221-.965 2.089-.965.478 0 .907.106 1.285.318.379.211.666.505.86.882h.096v-3.796h1.091v9.56h-1.04v-1.092h-.102c-.216.38-.516.678-.902.892a2.61 2.61 0 0 1-1.288.32zm.254-6.1c-.622 0-1.111.227-1.467.682-.355.455-.533 1.08-.533 1.876 0 .8.177 1.426.53 1.879.354.453.843.68 1.47.68.622 0 1.113-.23 1.472-.686.36-.457.54-1.082.54-1.873 0-.783-.18-1.405-.543-1.866-.362-.461-.851-.692-1.47-.692zm7.23 5.142c.563 0 1.03-.164 1.4-.492.37-.328.555-.736.555-1.222v-.629l-1.841.12c-.999.069-1.498.441-1.498 1.118 0 .347.131.618.394.813.262.194.592.292.99.292zm-.203.958c-.665 0-1.216-.183-1.654-.549-.438-.366-.657-.862-.657-1.488 0-1.253.832-1.928 2.495-2.025l1.974-.121v-.622c0-.872-.516-1.308-1.549-1.308-.41 0-.751.074-1.022.222-.27.149-.444.358-.52.629h-1.105c.072-.55.355-.991.85-1.324.496-.332 1.107-.498 1.835-.498.834 0 1.476.202 1.927.606.45.404.676.962.676 1.673v4.685h-1.041v-1.01h-.102a2.25 2.25 0 0 1-.876.838 2.57 2.57 0 0 1-1.231.292zm5.522 2.355l-.155-.003a2.334 2.334 0 0 1-.334-.035v-.933c.068.013.142.021.222.025.08.005.16.007.235.007.313 0 .565-.084.756-.251.19-.167.357-.458.501-.873l.127-.406-2.533-6.85h1.181l1.879 5.631h.102l1.872-5.63h1.162l-2.673 7.261c-.292.796-.604 1.338-.936 1.625-.332.288-.8.432-1.406.432zm-114.924 13.525v-7.89h-.102l-.352.253-.813.59c-.306.225-.577.422-.812.59l-.352.255v-1.206l.368-.264c.245-.175.529-.38.85-.612l.851-.613.368-.263h1.136v9.16h-1.142zm6.874.215c-1.032 0-1.832-.419-2.4-1.257-.566-.837-.85-2.018-.85-3.542 0-1.51.286-2.687.857-3.529.572-.842 1.37-1.263 2.393-1.263 1.02 0 1.815.422 2.384 1.266.569.845.854 2.026.854 3.546 0 1.519-.283 2.695-.848 3.529-.565.833-1.361 1.25-2.39 1.25zm0-.996c.677 0 1.195-.327 1.552-.981.358-.654.537-1.594.537-2.822 0-1.214-.181-2.15-.543-2.805-.362-.656-.877-.984-1.546-.984-.668 0-1.186.329-1.552.987-.366.658-.549 1.592-.549 2.802 0 1.223.181 2.163.543 2.819.362.656.881.984 1.558.984zm8.113.996c-1.033 0-1.833-.419-2.4-1.257-.567-.837-.85-2.018-.85-3.542 0-1.51.285-2.687.857-3.529.57-.842 1.368-1.263 2.393-1.263 1.02 0 1.814.422 2.383 1.266.57.845.854 2.026.854 3.546 0 1.519-.283 2.695-.848 3.529-.564.833-1.361 1.25-2.39 1.25zm0-.996c.677 0 1.194-.327 1.552-.981.357-.654.536-1.594.536-2.822 0-1.214-.18-2.15-.543-2.805-.362-.656-.877-.984-1.545-.984-.669 0-1.186.329-1.552.987-.366.658-.55 1.592-.55 2.802 0 1.223.181 2.163.543 2.819.362.656.881.984 1.559.984zm8.112.996c-1.033 0-1.832-.419-2.4-1.257-.567-.837-.85-2.018-.85-3.542 0-1.51.286-2.687.857-3.529.571-.842 1.369-1.263 2.393-1.263 1.02 0 1.814.422 2.383 1.266.57.845.854 2.026.854 3.546 0 1.519-.282 2.695-.847 3.529-.565.833-1.362 1.25-2.39 1.25zm0-.996c.677 0 1.194-.327 1.552-.981.357-.654.536-1.594.536-2.822 0-1.214-.18-2.15-.542-2.805-.362-.656-.877-.984-1.546-.984s-1.186.329-1.552.987c-.366.658-.55 1.592-.55 2.802 0 1.223.182 2.163.544 2.819.361.656.88.984 1.558.984zm11.965-6.183c.872 0 1.57.322 2.092.965s.784 1.502.784 2.577c0 1.07-.262 1.929-.784 2.574-.523.645-1.22.968-2.092.968-.486 0-.918-.101-1.295-.305a1.982 1.982 0 0 1-.844-.844h-.102v3.314h-1.091v-9.128h1.04v1.142h.102a2.41 2.41 0 0 1 .911-.926 2.506 2.506 0 0 1 1.28-.337zm-.26 6.1c.63 0 1.122-.226 1.476-.679.353-.453.53-1.08.53-1.879 0-.8-.177-1.426-.53-1.879-.354-.453-.843-.679-1.47-.679-.618 0-1.108.23-1.472.689-.364.459-.546 1.082-.546 1.87 0 .782.182 1.404.546 1.865.364.462.852.692 1.466.692zm7.585.984c-.973 0-1.742-.316-2.307-.949s-.847-1.497-.847-2.593c0-1.1.282-1.966.847-2.596.565-.63 1.334-.946 2.307-.946.974 0 1.743.315 2.308.946.565.63.847 1.496.847 2.596 0 1.096-.282 1.96-.847 2.593s-1.334.95-2.308.95zm0-.984c.648 0 1.147-.224 1.498-.673.352-.448.527-1.077.527-1.885 0-.812-.175-1.442-.527-1.888-.35-.447-.85-.67-1.498-.67-.647 0-1.146.223-1.498.67-.35.446-.526 1.076-.526 1.888 0 .808.175 1.437.526 1.885.352.449.851.673 1.498.673zm4.818.864v-6.843h1.092v6.843h-1.092zm.546-8.233a.732.732 0 0 1-.536-.226.732.732 0 0 1-.226-.536.73.73 0 0 1 .226-.54.738.738 0 0 1 .536-.222c.212 0 .392.074.54.222a.735.735 0 0 1 .222.54.738.738 0 0 1-.222.536.73.73 0 0 1-.54.226zm2.552 8.233v-6.843h1.041v1.079h.102c.173-.377.428-.67.764-.882.337-.212.767-.318 1.292-.318.77 0 1.362.22 1.774.657.413.438.62 1.063.62 1.876v4.43h-1.093v-4.164c0-.617-.132-1.074-.396-1.37-.265-.297-.67-.445-1.216-.445-.546 0-.982.171-1.307.514-.326.343-.49.815-.49 1.416v4.05h-1.091zm7.966-8.614h1.092v1.77h1.523v.915h-1.523v3.872c0 .402.08.694.241.876.161.182.42.273.775.273.097 0 .18-.002.25-.007.07-.004.156-.01.257-.019v.92a3.283 3.283 0 0 1-.64.064c-.703 0-1.208-.141-1.515-.425-.306-.284-.46-.751-.46-1.403v-4.151h-1.104v-.914h1.104v-1.771zm3.904 3.643c0-.567.243-1.04.73-1.422.487-.38 1.094-.57 1.822-.57.72 0 1.31.164 1.774.494.463.33.731.777.803 1.34h-1.08a1.096 1.096 0 0 0-.494-.66c-.258-.166-.595-.248-1.01-.248-.406 0-.749.094-1.028.282-.28.189-.419.435-.419.74 0 .233.098.426.292.58.195.155.493.281.895.378l1.054.254c.643.157 1.122.382 1.438.676.315.294.473.687.473 1.178 0 .613-.263 1.112-.788 1.495-.524.383-1.176.574-1.955.574-.761 0-1.386-.17-1.872-.508-.487-.338-.76-.791-.819-1.358h1.124c.093.288.275.517.545.689.271.171.625.257 1.06.257.462 0 .84-.1 1.137-.299.296-.199.444-.455.444-.768a.76.76 0 0 0-.27-.593c-.18-.159-.451-.283-.815-.372l-1.175-.285c-.639-.157-1.11-.381-1.412-.673-.303-.292-.454-.686-.454-1.18z"/><path fill="#EAECFF" d="M137.564 198.428c-6.247 0-18.013 8.032-16.564 10.351 1.448 2.32 17.091 2.442 19.299 1.221 2.207-1.22 3.512-11.572-2.735-11.572z"/><path fill="#2A2F54" fill-rule="nonzero" d="M128.359 197.136v-4.583c0-.506.41-.917.916-.917h3.667c.506 0 .916.41.916.917v4.583h6.416a3.36 3.36 0 0 1 3.36 3.36v7.944a.917.917 0 1 1-1.832 0v-7.944c0-.843-.684-1.527-1.528-1.527h-18.331c-.844 0-1.528.684-1.528 1.527v7.944a.917.917 0 0 1-1.833 0v-7.944a3.36 3.36 0 0 1 3.36-3.36h6.417zm1.833 0h1.833v-3.667h-1.833v3.667zm-14.97 15.887a.917.917 0 1 1 0-1.833h31.774a.917.917 0 1 1 0 1.833H115.22z"/><path fill="#92A1FF" fill-rule="nonzero" d="M141.802 205.545a4.88 4.88 0 0 1-2.065.45c-1.077 0-2.093-.342-2.876-.939-.784.597-1.8.94-2.876.94-1.078 0-2.093-.343-2.877-.94-.783.597-1.799.94-2.876.94s-2.093-.343-2.876-.94c-.783.597-1.799.94-2.876.94a4.904 4.904 0 0 1-2.065-.45v-2.762c.309.635 1.1 1.117 2.065 1.117.845 0 1.59-.377 1.963-.942.425-.646 1.4-.646 1.827 0 .372.565 1.117.942 1.962.942.846 0 1.59-.377 1.963-.942.426-.646 1.401-.646 1.827 0 .372.565 1.117.942 1.963.942.845 0 1.59-.377 1.962-.942.426-.646 1.401-.646 1.827 0 .372.565 1.117.942 1.963.942.964 0 1.756-.482 2.065-1.112v2.756zm-10.694-15.436c-1.35 0-2.444-1.145-2.444-2.556 0-.942.815-2.331 2.444-4.169 1.63 1.838 2.445 3.227 2.445 4.169 0 1.411-1.095 2.556-2.445 2.556z"/><g><path fill="#FFF" stroke="#2A2F54" stroke-width="2" d="M213.797 48.777c-2.226 3.47-2.55 62.85.013 67.069-.057-.094.885.176 2.245.382 1.692.257 4.125.501 7.254.73 6.03.441 14.59.822 25.266 1.134 20.203.589 47.391.908 75.726.908 28.336 0 55.617-.32 75.992-.908 10.767-.312 19.439-.693 25.599-1.134 5.974-.428 9.826-.987 10.072-1.262 1.849-2.055 3.651-16.538 3.982-32.224.363-17.192-1.088-30.732-3.925-33.415-2.798-2.647-50.034-4.176-112.95-4.05-27.145.055-54.438.42-75.156 1-10.458.292-18.952.631-24.924 1-3.071.19-5.458.386-7.11.586-1.19.144-2.205.372-2.084.184z"/><path fill="#444656" d="M284.247 79.835c-.843 0-1.582-.22-2.219-.66-.637-.44-.968-1.062-.993-1.866h1.104c.064.444.258.811.584 1.1.326.29.838.436 1.536.436.72 0 1.23-.136 1.53-.407.3-.27.45-.605.45-1.002 0-.352-.108-.643-.326-.873-.218-.23-.642-.422-1.273-.575l-.946-.228c-.791-.19-1.394-.471-1.809-.841-.414-.37-.622-.869-.622-1.495 0-.745.284-1.334.85-1.768.568-.434 1.279-.65 2.134-.65.82 0 1.52.223 2.1.669.58.447.883 1.048.908 1.806h-1.104c-.047-.487-.246-.856-.597-1.108-.351-.252-.787-.377-1.307-.377-.614 0-1.08.137-1.4.412-.32.275-.48.588-.48.94 0 .309.11.58.33.815.22.235.606.42 1.156.556l.946.228c.817.195 1.445.476 1.885.845.44.368.66.886.66 1.555 0 .825-.31 1.446-.93 1.863-.62.417-1.342.625-2.167.625zm-.407 1.085v-11h.762v11h-.762zm5.472-7.496c0-.817.282-1.488.847-2.012.565-.525 1.286-.787 2.162-.787.8 0 1.47.242 2.012.726.542.485.813 1.1.813 1.844 0 .525-.145 1.03-.435 1.514-.29.485-.848 1.154-1.673 2.01l-2.082 2.151v.102h4.342V80h-5.929v-.787l3.098-3.352c.584-.63.982-1.112 1.193-1.444.212-.332.318-.7.318-1.101 0-.487-.154-.89-.46-1.212-.307-.322-.732-.483-1.273-.483-.55 0-.993.165-1.327.495-.334.33-.501.766-.501 1.308h-1.105zm10.88 6.792c-.868 0-1.585-.244-2.152-.73-.567-.487-.876-1.122-.927-1.904h1.124c.05.486.257.88.619 1.18.362.3.811.45 1.349.45.6 0 1.083-.197 1.447-.593.364-.395.546-.913.546-1.552 0-.617-.18-1.117-.54-1.498-.36-.38-.83-.571-1.409-.571-.436 0-.819.095-1.149.286a1.98 1.98 0 0 0-.768.793h-1.073l.527-5.237h5.085v1.022h-4.19l-.285 2.984h.101c.224-.275.506-.483.844-.622.339-.14.737-.21 1.194-.21.77 0 1.43.276 1.98.829.55.552.825 1.283.825 2.193 0 .943-.29 1.71-.872 2.297-.582.589-1.34.883-2.276.883zm11.33-.095c-.973 0-1.742-.317-2.307-.95-.565-.632-.847-1.496-.847-2.592 0-1.1.282-1.966.847-2.597.565-.63 1.334-.945 2.307-.945.974 0 1.743.315 2.308.945.565.631.847 1.496.847 2.597 0 1.096-.282 1.96-.847 2.593-.565.632-1.334.949-2.308.949zm0-.984c.648 0 1.147-.225 1.499-.673.35-.449.526-1.077.526-1.885 0-.813-.175-1.442-.526-1.889-.352-.446-.851-.67-1.499-.67-.647 0-1.146.224-1.498.67-.35.447-.526 1.076-.526 1.889 0 .808.175 1.436.526 1.885.352.448.851.673 1.498.673zm5.25.863v-5.929h-1.136v-.914h1.136v-.761c0-.682.168-1.189.505-1.52.336-.333.83-.499 1.482-.499.135 0 .263.005.384.016.12.01.238.026.352.047v.89a1.735 1.735 0 0 0-.235-.026 5.88 5.88 0 0 0-.279-.007c-.394 0-.678.095-.854.283-.175.188-.263.47-.263.847v.73h1.568v.914h-1.568V80h-1.092zm4.627 0v-5.929h-1.136v-.914h1.136v-.761c0-.682.169-1.189.505-1.52.336-.333.83-.499 1.482-.499.136 0 .264.005.384.016.12.01.238.026.353.047v.89a1.735 1.735 0 0 0-.235-.026 5.88 5.88 0 0 0-.28-.007c-.393 0-.678.095-.853.283-.176.188-.264.47-.264.847v.73h1.568v.914h-1.568V80H321.4zm-40.44 9.424c0-.817.282-1.488.847-2.012.565-.525 1.285-.787 2.161-.787.8 0 1.47.242 2.012.726.542.485.813 1.1.813 1.844 0 .525-.145 1.03-.435 1.514-.29.485-.847 1.154-1.672 2.01l-2.082 2.151v.102h4.341V96h-5.928v-.787l3.097-3.352c.584-.63.982-1.112 1.194-1.444.211-.332.317-.7.317-1.101 0-.487-.153-.89-.46-1.212-.307-.322-.731-.483-1.273-.483-.55 0-.992.165-1.327.495-.334.33-.501.766-.501 1.308h-1.105zm10.88 6.792c-.868 0-1.585-.244-2.152-.73-.568-.487-.876-1.122-.927-1.904h1.123c.051.486.257.88.62 1.18.361.3.81.45 1.348.45.601 0 1.083-.197 1.447-.593.364-.395.546-.913.546-1.552 0-.617-.18-1.117-.54-1.498-.359-.38-.829-.571-1.408-.571-.436 0-.82.095-1.15.286a1.98 1.98 0 0 0-.767.793h-1.073l.527-5.237h5.084v1.022h-4.19l-.285 2.984h.102c.224-.275.505-.483.844-.622.338-.14.736-.21 1.193-.21.77 0 1.43.276 1.98.829.55.552.826 1.283.826 2.193 0 .943-.291 1.71-.873 2.297-.582.589-1.34.883-2.276.883zm7.997 0c-1.032 0-1.832-.42-2.399-1.257-.567-.838-.85-2.019-.85-3.542 0-1.51.285-2.687.856-3.53.572-.841 1.37-1.262 2.393-1.262 1.02 0 1.815.422 2.384 1.266.57.844.854 2.026.854 3.545 0 1.52-.283 2.696-.848 3.53-.565.833-1.361 1.25-2.39 1.25zm0-.997c.678 0 1.195-.327 1.552-.98.358-.654.537-1.595.537-2.822 0-1.215-.181-2.15-.543-2.806-.362-.656-.877-.984-1.546-.984-.668 0-1.186.33-1.552.988-.366.658-.549 1.592-.549 2.802 0 1.223.181 2.162.543 2.818.362.656.881.984 1.558.984zm8.113.997c-1.033 0-1.833-.42-2.4-1.257-.567-.838-.85-2.019-.85-3.542 0-1.51.285-2.687.857-3.53.571-.841 1.369-1.262 2.393-1.262 1.02 0 1.814.422 2.383 1.266.57.844.854 2.026.854 3.545 0 1.52-.282 2.696-.847 3.53-.565.833-1.362 1.25-2.39 1.25zm0-.997c.677 0 1.194-.327 1.552-.98.357-.654.536-1.595.536-2.822 0-1.215-.18-2.15-.543-2.806-.361-.656-.877-.984-1.545-.984-.669 0-1.186.33-1.552.988-.366.658-.55 1.592-.55 2.802 0 1.223.182 2.162.543 2.818.362.656.882.984 1.559.984zm11.965-6.182c.872 0 1.569.321 2.092.964.522.644.784 1.503.784 2.578 0 1.07-.262 1.928-.784 2.574-.523.645-1.22.968-2.092.968-.487 0-.918-.102-1.295-.305a1.982 1.982 0 0 1-.844-.844h-.102v3.313h-1.091v-9.128h1.04V90.3h.102a2.41 2.41 0 0 1 .911-.927 2.506 2.506 0 0 1 1.28-.336zm-.26 6.1c.63 0 1.122-.227 1.476-.68.353-.452.53-1.079.53-1.878 0-.8-.177-1.426-.53-1.88-.354-.452-.844-.678-1.47-.678-.618 0-1.109.23-1.473.688-.363.46-.545 1.082-.545 1.87 0 .782.182 1.405.545 1.866.364.461.853.692 1.467.692zm7.585.984c-.973 0-1.742-.317-2.307-.95-.565-.632-.848-1.496-.848-2.592 0-1.1.283-1.966.848-2.597.565-.63 1.334-.945 2.307-.945.974 0 1.743.315 2.308.945.565.631.847 1.496.847 2.597 0 1.096-.282 1.96-.847 2.593-.565.632-1.334.949-2.308.949zm0-.984c.648 0 1.147-.225 1.498-.673.352-.449.527-1.077.527-1.885 0-.813-.175-1.442-.527-1.889-.35-.446-.85-.67-1.498-.67-.647 0-1.147.224-1.498.67-.351.447-.527 1.076-.527 1.889 0 .808.176 1.436.527 1.885.351.448.85.673 1.498.673zm4.818.863v-6.843h1.092V96h-1.092zm.546-8.233a.732.732 0 0 1-.536-.225.732.732 0 0 1-.226-.537.73.73 0 0 1 .226-.54.738.738 0 0 1 .536-.221c.212 0 .391.074.54.222a.735.735 0 0 1 .222.54.738.738 0 0 1-.222.536.73.73 0 0 1-.54.225zM335.155 96v-6.843h1.04v1.08h.102c.174-.377.429-.671.765-.883.337-.212.767-.317 1.292-.317.77 0 1.362.219 1.774.657.413.438.62 1.063.62 1.875V96h-1.093v-4.164c0-.618-.132-1.075-.396-1.371-.265-.296-.67-.444-1.216-.444-.546 0-.982.17-1.308.514-.325.342-.488.814-.488 1.415V96h-1.092zm7.966-8.614h1.092v1.771h1.523v.914h-1.523v3.872c0 .402.08.694.241.876.16.182.419.273.775.273.097 0 .18-.002.25-.006s.156-.01.257-.02v.921a3.283 3.283 0 0 1-.64.064c-.703 0-1.208-.142-1.515-.426-.307-.283-.46-.75-.46-1.402V90.07h-1.104v-.914h1.104v-1.77zm3.904 3.644c0-.567.243-1.041.73-1.422s1.094-.571 1.822-.571c.72 0 1.31.165 1.774.495.463.33.73.776.803 1.34h-1.08a1.096 1.096 0 0 0-.494-.661c-.259-.165-.595-.248-1.01-.248-.406 0-.749.095-1.028.283-.28.188-.419.435-.419.74 0 .232.097.426.292.58.195.155.493.28.895.378l1.054.254c.643.156 1.122.382 1.438.676.315.294.472.686.472 1.177 0 .614-.262 1.112-.787 1.495-.524.383-1.176.575-1.955.575-.761 0-1.386-.17-1.872-.508-.487-.339-.76-.792-.82-1.359h1.124c.093.288.275.518.546.69.271.17.624.256 1.06.256.462 0 .84-.1 1.137-.298.296-.199.444-.455.444-.768a.76.76 0 0 0-.27-.594c-.18-.158-.452-.282-.816-.371l-1.174-.286c-.639-.156-1.11-.38-1.412-.673-.303-.292-.454-.685-.454-1.18z"/><path fill="#EAECFF" d="M265.983 80.13c-2.616-2.867-23.731-2.005-27.693 1.295-3.962 3.3 3.913 15.46 11.404 15.11 7.491-.35 18.905-13.538 16.289-16.405z"/><path fill="#92A1FF" fill-rule="nonzero" d="M238.582 80.945a.924.924 0 0 1 .216-1.264.867.867 0 0 1 1.23.223l.674.991c.28.41.182.976-.217 1.264a.867.867 0 0 1-1.229-.223l-.674-.991zm2.699 3.965a.924.924 0 0 1 .216-1.264.867.867 0 0 1 1.23.223l.674.99c.28.411.182.977-.217 1.265a.867.867 0 0 1-1.229-.223l-.674-.991zm2.699 3.964a.924.924 0 0 1 .216-1.264.867.867 0 0 1 1.23.223l.674.991c.28.411.182.977-.217 1.264a.867.867 0 0 1-1.229-.223l-.674-.99zm2.699 3.965a.924.924 0 0 1 .216-1.264.867.867 0 0 1 1.23.223l.674.991c.28.41.182.977-.217 1.264a.867.867 0 0 1-1.229-.223l-.674-.991z"/><path fill="#2A2F54" fill-rule="nonzero" d="M267.27 80.959c.648.951.451 2.26-.465 2.92l-20.317 14.633c-.916.66-2.18.402-2.827-.55l-1.885-2.77a4.64 4.64 0 0 1-.746-3.295l.032-.214a3.337 3.337 0 0 0-.537-2.37l-.155-.228a3.168 3.168 0 0 0-1.981-1.33l-.208-.042a4.404 4.404 0 0 1-2.755-1.848l-1.886-2.77c-.647-.951-.45-2.26.466-2.92l20.316-14.633c.917-.66 2.18-.402 2.827.55l1.886 2.77a4.64 4.64 0 0 1 .746 3.295l-.032.214c-.125.832.067 1.681.537 2.37l.155.228c.469.69 1.179 1.166 1.981 1.33l.208.042a4.404 4.404 0 0 1 2.755 1.848l1.886 2.77zm-4.984-2.838l-.207-.042a4.93 4.93 0 0 1-3.084-2.069l-.155-.228a5.192 5.192 0 0 1-.835-3.688l.032-.215a2.783 2.783 0 0 0-.447-1.977l-1.886-2.77c-.098-.143-.266-.178-.37-.103l-20.316 14.633c-.104.074-.13.248-.032.392l1.885 2.77c.392.575.984.972 1.654 1.109l.207.042a4.93 4.93 0 0 1 3.084 2.069l.155.227a5.192 5.192 0 0 1 .835 3.689l-.032.214a2.783 2.783 0 0 0 .447 1.978l1.886 2.77c.098.143.266.178.37.103l20.316-14.633c.104-.074.13-.248.032-.392l-1.885-2.77a2.642 2.642 0 0 0-1.654-1.109z"/></g><g><path fill="#D6DCFE" d="M388.28 272.352c5.134-3.31 38.96-1.18 42.8 3.422 3.841 4.602 8.185 29.24 7.149 32.066-1.036 2.825-5.61 10.679-9.245 12.077-3.635 1.399-29.339 1.399-32.144 0-2.806-1.398-7.074-8.484-8.56-12.077-1.486-3.594-5.134-32.178 0-35.488z"/><path fill="#AFBAFF" d="M384.073 284.2c1.656 2.015 3.73 1.48 7.003-2.161 3.273-3.642 5.434-7.494 4.005-10.085-1.429-2.591-8.51-3.527-11.165-.573-2.655 2.954-1.498 10.803.157 12.819zM413 273.583c-1.963 2.86-.805 43.45.896 45.3 1.701 1.849 7.48 3.2 13.43 0 5.951-3.2 7.355-7.256 9.238-12.191 1.882-4.936 1.364-25.616-5.312-30.948-6.676-5.332-16.288-5.021-18.252-2.161z"/><path stroke="#2A2F54" stroke-linecap="round" stroke-linejoin="round" stroke-width="2" d="M439.534 282.868c.373 16.06.255 24.879-.355 26.456-1.134 2.936-6.144 11.099-10.126 12.552-3.982 1.453-32.136 1.453-35.21 0-3.072-1.453-7.747-8.817-9.375-12.552-1.086-2.49-3.221-37.57-2.153-39.301.712-1.154 14.934-1.154 42.668 0"/><path stroke="#2A2F54" stroke-linecap="round" stroke-width="2" d="M398.465 311.701c1.603.064 3.78.084 6.533.058m5.332-.109c3.605-.096 11.766-.38 24.482-.852"/><path fill="#A2DEDC" d="M372.621 259.225c6.17 6.02 14.85 3.83 21.307-2.92 6.457-6.748 8.188-14.211 2.076-21.52-6.113-7.31-17.062-3.233-22.902 2.907-5.84 6.14-6.651 15.513-.48 21.533z"/><path fill="#53B2C1" d="M367.425 254.064c1.67-7.133 24.4-18.6 30.23-16.469 5.829 2.13.918 21.614-5.934 25.347-6.852 3.733-25.966-1.745-24.296-8.878z"/><path stroke="#2A2F54" stroke-width="2" d="M370.642 258.06c6.835 6.666 16.191 4.506 23.027-2.643 6.837-7.149 8.532-15.185 1.73-23.245-6.804-8.06-18.575-3.912-24.757 2.592-6.183 6.505-6.836 16.631 0 23.297z"/><path fill="#A2DEDC" d="M423.285 230.228c-8.229-4.798-10.223-16.867-4.454-26.957 5.77-10.091 17.117-14.382 25.346-9.584s10.223 16.867 4.454 26.958c-5.77 10.09-17.117 14.38-25.346 9.583z"/><path fill="#A2DEDC" d="M446.659 279.452c6.684-1.19 10.908-8.994 9.435-17.431-1.473-8.438-9.435-13.508-16.12-12.318-6.683 1.19-10.675 8.51-9.202 16.948 1.473 8.437 9.203 13.991 15.887 12.801z"/><path fill="#53B2C1" d="M414.67 217.419c3.148-9.535 23.394-19.128 29.624-19.434 6.23-.307 7.558 8.84 4.938 16.776s-6.5 14.622-15.45 15.062c-8.95.44-22.26-2.87-19.112-12.404z"/><path fill="#53B2C1" d="M432.26 271.306c.376-5.17 15.427-16.24 20.294-13.713 4.868 2.527 2.939 17.72-2.623 20.407-5.562 2.688-18.046-1.524-17.67-6.694z"/><path stroke="#2A2F54" stroke-linecap="round" stroke-width="2" d="M418.39 197.661a25.548 25.548 0 0 0-2.259 3.941m-1.734 5.11a23.51 23.51 0 0 0-.502 7.183c.55 6.257 3.736 11.682 9.023 14.174 8.615 4.062 19.546-1.201 24.414-11.756 4.867-10.555 1.829-22.405-6.787-26.467-5.914-2.788-12.918-1.183-18.303 3.511"/><path stroke="#2A2F54" stroke-width="2" d="M443.659 278.452c6.684-1.19 10.908-8.994 9.435-17.431-1.473-8.438-9.435-13.508-16.12-12.318-6.683 1.19-10.675 8.51-9.202 16.948 1.473 8.437 9.203 13.991 15.887 12.801z"/><g stroke="#2A2F54" stroke-linecap="round" stroke-width="2.2"><path d="M371.916 252.393c6.746-9.032 13.522-14.055 20.328-15.067 9.65-1.436 21.236 1.167 20.326 27.68m-33.14-21.22c-4.956.213-5.558.107-10.514.32m21.735-7.012l-12.735-6.648"/><path d="M383.916 240.446c.771 7.08 1.856 13.78 1.543 21.014l-1.543-21.014zm28.075 9.74c2.916-18.983 13.788-32.113 27.85-48.444m5.24 70.61c-4.408-15.533-17.95-31.063-32.608-20.641M426.265 219c9.08-1.194 11.364-1.639 19.263-.97m-17.302-3.007c.058-8.065-.058-16.958 0-25.023m9.365 66.406c4.885-.465 10.845 1.833 15.532 4.173m-12.307 3.604l-3.936 13.699"/></g></g><g><path fill="#FFD8C9" fill-rule="nonzero" d="M97.603 294C94.51 294 92 296.462 92 299.5s2.509 5.5 5.603 5.5h2.794c3.094 0 5.603-2.462 5.603-5.5s-2.509-5.5-5.603-5.5h-2.794zm.031-5h2.732c5.873 0 10.634 4.701 10.634 10.5s-4.761 10.5-10.634 10.5h-2.732C91.761 310 87 305.299 87 299.5S91.761 289 97.634 289z"/><path fill="#FFD8C9" d="M59.238 279.842c5.756.154 10.72.231 14.889.231 7.55 0 13.843-.39 18.876-1.173V315c0 6.627-5.373 12-12 12h-9.765c-6.627 0-12-5.373-12-12v-35.158z"/><path fill="#FFB89C" d="M79.574 282.537c-.864 2.498-6.91 29.401-3.457 36.485 3.452 7.084 12.149 10.045 16.042 0 3.893-10.044 1.793-33.926-.933-38.983-2.726-5.057-10.788 0-11.652 2.498z"/><path stroke="#2A2F54" stroke-linecap="round" stroke-linejoin="round" stroke-width="2" d="M55.272 279.783c1.484-1.298 10.043.217 17.314.217 13.168 0 19.443-2.98 21.074-.534.92 1.383 1.055 12.274.415 32.673C93.871 318.712 88.658 324 82.383 324h-15.18c-6.2 0-11.372-5.163-11.678-11.652-1.006-20.97-1.096-31.825-.253-32.565z"/><path stroke="#2A2F54" stroke-linecap="round" stroke-linejoin="round" stroke-width="2" d="M65.5 277.874c-.993 2.181-1.49 4.39-1.49 6.63 0 2.238.497 5.57 1.49 9.996"/><path fill="#D8D8D8" d="M60 294c1.094-1.146 10.018-1.46 11 0 .982 1.46.982 10.265 0 11-.982.735-9.466 2-11 0-1.534-2-1.094-9.854 0-11z"/><path fill="#FFF" d="M60 294.075c1.094-1.233 10.018-1.573 11 0 .982 1.573.982 11.051 0 11.843-.982.791-9.466 2.153-11 0-1.534-2.154-1.094-10.61 0-11.843z"/><path fill="#EAEDFF" d="M62.844 294c.922-1.146 8.444-1.46 9.272 0 .827 1.46.827 10.265 0 11-.828.735-7.979 2-9.272 0-1.293-2-.922-9.854 0-11z"/><path stroke="#2A2F54" stroke-linecap="round" stroke-linejoin="round" stroke-width="2" d="M60 294c1.094-1.146 10.018-1.46 11 0 .982 1.46.982 10.265 0 11-.982.735-9.466 2-11 0-1.534-2-1.094-9.854 0-11z"/><path stroke="#2A2F54" stroke-linecap="round" stroke-width="2" d="M98.266 293.97c2.51.129 4.37.765 5.576 1.908 1.81 1.714 2.334 6.013.23 7.832-1.403 1.213-3.185 1.783-5.344 1.712"/><path stroke="#2A2F54" stroke-linecap="round" stroke-width="2" d="M96.702 288.28c4.602-.192 8.31.78 11.126 2.916 2.69 2.042 6.782 9.048.856 16.27-1.974 2.405-5.735 3.608-11.284 3.608"/></g></g></svg>