<svg height="150" viewBox="0 0 180 150" width="180" xmlns="http://www.w3.org/2000/svg"><g fill="none" fill-rule="evenodd"><path d="m94.416 99.95c4.27 6.923 11.238 17.658 20.842 20.101 9.603 2.443 29.568-5.72 22.993-16.774-9.346-15.71-26.022 3.07-16.311 17.007 4.806 6.899 25.743 6.899 38.06 4.322" stroke="#ccd1e4" stroke-linecap="round" stroke-width="2"/><path d="m142.31 58c0-7.396-130.669-46.32-134.37-40.379-3.702 5.942 12.96 62.835 20.06 65.193s114.31-17.418 114.31-24.814z" fill="#fff"/><path d="m134.187 61.824c4.164 3.877-7.976 8.356-36.421 13.439l-27.824 3.91c-4.231.79-7.153 1.35-8.765 1.68-1.582.324-2.016.565-3.478.85-15.104 2.956-22.631 3.195-25.003 2.157-4.428-1.94-19.976-67.367-17.126-68.402s112.37 40.55 118.617 46.366z" fill="#e9f0ff"/><path d="m39.762 81.093c-5.293-3.192 2.44-34.976 8.899-39.532 6.458-4.555 83.101 15.958 89.788 19.924 4.458 2.643-8.316 6.176-38.322 10.598-36.715 8.134-56.837 11.137-60.365 9.01z" fill="#cbddff"/><path d="m16.385 22.046c-1.97 5.143 63.137 71.954 72.079 71.954s8.808-19.674 7.713-22.667c-1.094-2.993-77.822-54.43-79.792-49.287z" fill="#cbddff"/><path d="m10.792 19.293c.694-1.587 64.632 54.204 66.095 55.707 1.464 1.503 13.116 21.647 9.471 20.086s-76.26-74.205-75.566-75.793z" fill="#92acff"/><g stroke="#2a2f54" stroke-linecap="round" stroke-width="2"><path d="m8.304 17c50.408 51.698 76.671 77.547 78.79 77.547 3.178 0 10.037-19.99 8.942-22.983-.73-1.994-29.974-20.183-87.732-54.564z" stroke-linejoin="round"/><path d="m14.997 54.526a767.699 767.699 0 0 0 2.041 7.14m2.107 4.752 1.475 4.43"/><path d="m13.47 50c-5.867-21.285-7.6-32.452-5.196-33.5 3.606-1.573 62.185 17.895 83.773 24.408 2.256.68 4.437 1.343 6.544 1.986 29.431 8.993 44.338 13.528 44.338 17.903 0 2.917-14.622 6.307-43.865 10.17" stroke-linejoin="round"/><path d="m24.263 79.629c.454 1.313 1.411 2.293 2.871 2.94 2.19.972 31.003-5.316 32.96-4.531 1.304.523 7.632 5.032 18.982 13.526m-41.076-36.564-10 23m39-31 45 8m5.79 1.159 10.21 1.841"/></g></g></svg>