<svg xmlns="http://www.w3.org/2000/svg" width="147" height="60"><g fill="#7F8599"><path d="M14.05 27.681a20.258 20.258 0 0 1-6.873 1.18c-1.53 0-3.152-.992-3.59-2.555-.565.196-1.695.396-2.624.728L0 27.362v-1.481c.088 0 .963-.332.963-.332.873-.328 1.881-.396 2.452-.592.305-2.98 3.02-5.21 5.65-5.21.875 0 1.976.66 1.976 1.975 0 2.835-3.24 3.23-5.691 4.027.217 1.251 1.839 1.647 2.977 1.647 2.189 0 3.983-.592 5.734-1.187l.906-.328v1.451l-.918.35zm-5.297-6.483c-1.005 0-3.587 1.32-3.587 3.231 1.839-.728 4.237-1.32 4.237-2.707.006-.443-.387-.524-.65-.524z"/><path d="M31.923 28.091c-1.502.46-3.265.98-3.952.98-.945 0-1.46-.262-1.802-1.047-1.416 1.178-3.65 2.356-4.808 2.356-1.159 0-1.94-.845-1.94-2.225 0-.786.643-1.508.474-1.9-.13-.326-.901.13-1.33.261-.688.262-1.94.456-3.135.917l-.945.325v-1.453l.959-.308a40.628 40.628 0 0 1 6.44-1.689c.255 0 .643.262.643.654 0 .393-.302.984-.554 1.504-.26.393-.439.893-.515 1.44 0 .523.43.586.77.586 1.289 0 2.447-.844 3.481-1.832.3-1.047.815-2.356 1.544-2.356.153.009.298.11.402.282.104.172.159.4.152.634 0 1.047-.3 1.44-.729 2.027.259.294.58.434.901.392 1.031 0 2.494-.456 3.952-.98l.9-.324v1.44l-.908.316zm26.063-.076c-2.203.825-6.31 2.543-8.299 3.782-2.162 4.954-4.742 11.83-7.39 17.198C39.747 54.158 36.852 60 34.257 60c-1.116 0-1.425-1.034-1.425-2.89 0-3.782 1.989-9.012 3.933-12.43 3.086-5.43 6.798-9.868 10.936-13.07.304-.688 1.297-2.956 1.86-4.261.218-.55.606-1.239.52-1.443-.129-.28-.734.067-1.116.204-2.249.688-4.668 1.514-6.657 2.131-.91.275-2.55.888-3.026.888-.433-.048-.771-.615-.779-1.305 0-.826.65-1.514.52-1.927-.13-.28-.866 0-1.396.204-.865.276-2.29.688-3.716 1.239l-.95.342v-1.545l.95-.346c2.98-1.101 6.827-2.22 7.477-2.22.223-.006.412.263.432.617 0 1.239-1.116 2.13-.91 2.752.087.342.91 0 1.426-.142 1.772-.413 6.096-1.922 8.213-2.663a8.031 8.031 0 0 1 1.827-.59c.173 0 .304.412.304.683 0 .484-1.556 3.995-2.29 5.771.951-.826 5.273-2.615 7.608-3.507l.906-.342v1.514l-.918.35zm-20.272 17.54c-2.034 3.44-3.76 8.252-3.76 10.8 0 1.03.086 1.718.646 1.718 1.395 0 4.495-5.642 6.612-10.454 2.162-5.021 3.719-8.803 5.58-13.687-3.59 3.023-6.528 7.299-9.078 11.622zM66.161 7.597a31.631 31.631 0 0 1-2.795 3.65c-.404.56-.628.905-.902.905-.18 0-.18-.28-.18-.557.011-.491.182-.94.454-1.19.765-.702 2.07-1.966 2.929-3.51.753-1.29 1.24-2.904 1.396-4.631C67.196.72 67.644 0 68.278 0c.541 0 .765.702.765 1.408.003 1.698-1.98 4.804-2.882 6.19z"/><path d="M72.431 28.067a11.09 11.09 0 0 1-4.76.634c-1.107.769-2.317 1.679-3.56 1.679-.899 0-2.056-.49-2.056-1.965 0-.629.086-1.262.343-1.47.344-.281.728.072 1.199.208 1.161.351 2.337.562 3.518.629.29-.514.443-1.194.429-1.892 0-1.544-.687-1.688-1.661-1.688-.944 0-1.973.56-3.302 1.403-1.03.56-2.23 1.335-3.216 1.756l-.944.348v-1.557l.944-.353c.858-.348 2.06-.842 3.003-1.403 1.63-.905 3.26-1.611 4.802-1.611 1.107 0 2.49.774 2.49 2.593 0 1.05-.514 1.756-.899 2.313a18.676 18.676 0 0 0 3.687-1.19l.94-.349v1.544l-.957.37zm-8.452.348c-.213 0-.515 0-.515.353s.6.702.988.702c.512-.048 1.003-.34 1.414-.842-.639 0-1.408-.213-1.887-.213zm35.967-.235a13.55 13.55 0 0 1-3.985.68c-3.154 0-4.73-2.52-4.73-6.746-.03-1.385.15-2.762.525-4.02-2.038 4.732-5.15 8.091-8.713 9.403l-.963.339v-1.517l.963-.343c5.69-2.111 8.67-9.61 11.514-16.084h-5.164c-.26 0-.565-.273-.565-.682.03-.444.279-.773.565-.747h5.913c1.18-2.389 2.543-4.838 3.504-6.747.33-.634.833-.988 1.356-.954.306 0 .656.343.656.818 0 .752-.35 1.363-.704 2.045-.83 1.636-1.837 3.408-2.543 4.838h2.846v1.363h-3.454c-1.36 3.343-4.16 8.585-4.16 13.018 0 3.338 1.574 4.636 3.592 4.636a9.717 9.717 0 0 0 3.547-.818l.964-.343v1.5l-.964.36z"/><path d="M115.447 28.041c-1.515.49-3.055.765-4.6.82-1.043 0-2.217-.617-2.217-2.393a6.62 6.62 0 0 1 .434-2.252 5.496 5.496 0 0 1-.955.208c-.528.046-1.049-.195-1.477-.683-.692 1.432-3.297 2.877-5.25 3.617l-.955.34v-1.52l.955-.344c1.563-.547 3.993-1.64 4.816-2.803-.042-.337-.07-.679-.084-1.022 0-.683.258-1.503.695-1.503.345 0 .56.613.56 1.16a5.85 5.85 0 0 1-.087.88c.319.467.746.702 1.18.648a8.994 8.994 0 0 0 2.648-.753c.347-.137.52-.07.52.343 0 .547-.392.957-.781 1.64-.347.612-.695 1.639-.695 2.251 0 .547.695.82 1.477.82a14.322 14.322 0 0 0 3.818-.956l.91-.34v1.503l-.912.34zm14.952-.36a20.214 20.214 0 0 1-6.864 1.18c-1.533 0-3.15-.992-3.588-2.555-.564.196-1.693.396-2.625.728l-.962.328v-1.481c.087 0 .962-.332.962-.332.872-.328 1.88-.396 2.45-.592.305-2.98 3.017-5.21 5.645-5.21.875 0 1.976.66 1.976 1.975 0 2.835-3.238 3.23-5.685 4.027.218 1.251 1.838 1.647 2.975 1.647 2.185 0 3.974-.592 5.727-1.187l.917-.328v1.451l-.928.35zm-5.292-6.483c-1.005 0-3.588 1.32-3.588 3.231 1.835-.728 4.234-1.32 4.234-2.707.008-.443-.384-.524-.646-.524zm20.259 6.483a20.233 20.233 0 0 1-6.867 1.18c-1.53 0-3.147-.992-3.584-2.555-.565.196-1.694.396-2.622.728l-.966.328v-1.481c.085 0 .966-.332.966-.332.872-.328 1.88-.396 2.447-.592.304-2.98 3.017-5.21 5.645-5.21.875 0 1.975.66 1.975 1.975 0 2.835-3.237 3.23-5.684 4.027.217 1.251 1.834 1.647 2.972 1.647 2.187 0 3.98-.592 5.73-1.187l.917-.328v1.451l-.929.35zm-5.292-6.483c-1.005 0-3.587 1.32-3.587 3.231 1.837-.728 4.233-1.32 4.233-2.707.009-.443-.383-.524-.646-.524z"/></g></svg>