<svg xmlns="http://www.w3.org/2000/svg" width="180" height="42"><path fill="#7F8599" fill-rule="evenodd" d="M28.766 17.006c-4.048 2.32-10.68 2.32-14.728 0-4.048-2.319-4.048-6.184-.086-8.503 4.048-2.319 10.68-2.319 14.727 0 4.134 2.32 4.134 6.184.087 8.503zm-.517-8.16c-3.79-2.147-9.905-2.147-13.694 0-3.79 2.148-3.703 5.755.086 7.902 3.79 2.148 9.904 2.148 13.694 0 3.703-2.233 3.703-5.754-.086-7.901zm-1.464 5.412c-1.809 1.03-3.962.773-6.115-.43l-.861-.515-2.153 1.288 1.033.601-1.033.602-3.79-2.148 1.034-.6.43.257c.172.086.603.086.69 0l5.683-3.264a.243.243 0 0 0 0-.43l-.43-.257 1.033-.601 3.617 2.061c2.154 1.117 2.67 2.32.862 3.436zm-1.981-2.92l-.861-.516-3.1 1.804.86.515c1.206.687 2.153.515 3.1 0 .862-.515 1.293-1.03 0-1.804zm17.139 1.288V29.46c0 1.46-.603 2.663-1.723 3.264l-13.866 7.988A10.305 10.305 0 0 1 21.36 42c-1.723 0-3.531-.43-4.995-1.288l-14.21-7.988C.86 32.037 0 30.748 0 29.46V12.626c0-1.289.947-2.577 2.153-3.264l14.21-8.074A10.305 10.305 0 0 1 21.36 0c1.722 0 3.531.43 4.995 1.374L40.22 9.362c1.12.601 1.723 1.804 1.723 3.264zm-1.55 5.926a3.824 3.824 0 0 1-.948.687l-13.608 7.902c-1.12.687-2.67 1.117-4.392 1.117H21.1c-1.722 0-3.272-.344-4.392-1.117L3.014 19.325a3.824 3.824 0 0 1-.947-.687v10.65c0 .687.517 1.375 1.464 1.976l13.608 7.902c.947.6 2.325.944 3.875.944h.517c1.464 0 2.928-.343 3.876-.944l13.607-7.902c.948-.516 1.464-1.289 1.464-1.976l-.086-10.736zm-1.55-7.558l-13.61-7.816c-1.12-.601-2.583-.945-4.134-.945-1.55 0-3.014.344-4.047.945L3.53 11.166c-.947.515-1.464 1.288-1.464 2.147v.601c.258.43.689.773 1.292 1.117l13.608 7.816c1.205.687 2.755 1.116 4.306 1.116 1.55 0 3.1-.343 4.306-1.116l13.608-7.816c.516-.344.947-.687 1.291-1.117v-.859c0-.515-.602-1.46-1.636-2.061zm1.55 6.27v-2.32a5.367 5.367 0 0 1-1.034.774l-13.522 7.816c-1.205.687-2.842 1.116-4.564 1.116-1.723 0-3.36-.43-4.651-1.116L3.1 15.718c-.43-.258-.689-.516-1.033-.773v2.319c.258.515.775.859 1.292 1.202l13.608 7.902c1.205.687 2.755 1.117 4.306 1.117 1.55 0 3.1-.344 4.306-1.117l13.608-7.902a2.717 2.717 0 0 0 1.205-1.202zM52.88 15.46v3.092c.431.086.862.258 1.292.258v7.3l-1.292.258v3.006h6.976v-3.006c-.43-.086-.86-.258-1.291-.258v-1.03h1.98c3.618 0 4.996-1.117 4.996-4.123v-1.03c0-3.264-1.378-4.467-5.082-4.467H52.88zm8.699 5.24c0 .858-.517 1.288-1.464 1.288h-1.55v-3.092H60.2c.947 0 1.464.343 1.464 1.202v.601h-.086zm16.02-5.24h-8.097v3.092c.431.086.776.172 1.12.258l-2.24 7.3c-.516.086-1.119.172-1.55.344v3.006h6.546v-3.006c-.43-.086-.603-.086-1.034-.172l.259-.773h3.359l.172.773c-.43.086-.861.086-1.292.172v3.006h7.837v-3.006c-.43-.086-1.033-.258-1.636-.258L77.598 15.46zm-3.36 3.522l.948 3.092h-1.895l.947-3.092zm22.737 6.098h-3.703c-.345.859-.862 1.288-1.723 1.288h-.775c-.947 0-1.722-.859-1.722-1.804v-4.208c0-1.117.603-1.718 1.636-1.718.861 0 1.464.086 2.067.172l.517 1.89h3.703v-4.896c-2.584-.43-3.876-.773-5.426-.773h-1.12c-3.617 0-5.684 2.061-5.684 5.84v3.264c.431 3.865 1.809 5.755 5.598 5.755h1.465c1.55 0 3.445-.602 5.167-1.46v-3.35zm10.077-9.62h-7.407v3.092c.43.086.861.172 1.722.258v7.3l-1.291.258v3.006h6.976v-3.006a15.37 15.37 0 0 0-1.723-.258v-1.975h1.981l1.292 2.061c-.172 0-.172.086-.69.172v3.006h6.977v-3.006c-.43-.086-.947-.172-1.378-.258l-2.498-3.693 2.498-3.693c.344 0 .517-.086.947-.172V15.46h-6.545v3.092c.43.086.689.086.947.086l-1.464 2.061h-2.153v-1.89c.861-.085 1.292-.171 1.723-.257V15.46h.086zm22.306 14v-5.24h-2.756l-.517 1.719h-2.842v-7.043c.43-.086 1.292-.172 1.723-.344V15.46h-7.407v3.092l1.292.258v7.3l-1.292.258v3.006h11.799v.086zm13.177-14h-8.01v3.092c.43.086.775.172 1.12.258l-2.24 7.3c-.516.086-1.119.172-1.55.344v3.006h6.546v-3.006c-.43-.086-.69-.086-1.12-.172l.173-.773h3.358l.173.773c-.431.086-.862.086-1.292.172v3.006h7.837v-3.006c-.43-.086-1.033-.258-1.636-.258l-3.36-10.736zm-3.273 3.522l.948 3.092h-1.895l.947-3.092zm25.924-3.522h-6.115v3.092c.43.086.861.172.861.258v3.95l-4.565-7.214h-5.512v3.092c.431.172.862.258 1.292.344v7.3l-1.292.258v3.006h6.115V26.54c0-.086-.43-.172-.861-.172v-3.521l4.392 6.699h4.393v-10.65l1.292-.258V15.46zm14.813 0h-12.23v3.092l1.292.258v7.3c0 .086-.43.172-.861.258v3.006H180v-4.81h-2.756l-.517 1.289h-3.272v-1.718h3.1v-3.522h-3.1v-1.717h3.272l.517 1.288H180V15.46z"/></svg>