<svg width="100" height="100" xmlns="http://www.w3.org/2000/svg"><g fill="none" fill-rule="evenodd"><path fill="#FFF" d="M25.806 25.806H75V75H25.806z"/><path d="M0 15.324C0 6.86 6.866 0 15.324 0h69.109c8.462 0 15.323 6.866 15.323 15.324v69.109c0 8.462-6.865 15.323-15.323 15.323h-69.11C6.862 99.756 0 92.891 0 84.433v-69.11zm67.158 24.999h-3.007c-.599 0-1.113.214-1.546.648-.392.395-.638.86-.653 1.39-.008.325-.054 2.226-.161 3.426-.325 3.48-1.478 6.28-3.457 8.398-1.963 2.106-4.74 3.163-8.33 3.181-3.595-.017-6.373-1.074-8.338-3.18-1.979-2.12-3.132-4.918-3.457-8.399-.107-1.2-.153-3.1-.161-3.425-.015-.531-.26-.996-.653-1.39a2.102 2.102 0 0 0-1.546-.65h-3.007a2.11 2.11 0 0 0-1.548.65c-.391.394-.649.784-.649 1.469 0 0 .106 3.127.163 3.75.487 5.55 2.398 9.966 5.735 13.255 3.304 3.26 7.767 4.903 13.39 4.933l.134.001c5.623-.03 10.086-1.674 13.39-4.934 3.337-3.289 5.248-7.706 5.735-13.254.057-.624.163-3.751.163-3.751 0-.685-.258-1.075-.649-1.47a2.11 2.11 0 0 0-1.548-.648z" fill-rule="nonzero" fill="#FFC828"/></g></svg>