<svg width="24" height="24" xmlns="http://www.w3.org/2000/svg"><path d="M14.745 23.866l.898-21.005a.4.4 0 0 1 .114.077c.153.134 1.413 1.401 1.413 1.401s1.814.135 1.91.135c.095 0 .19.076.21.192.018.115 2.595 17.644 2.595 17.644l-7.14 1.556zm.592-21.044l-.916 21.063L1 21.35S2.737 7.814 2.814 7.354c.076-.634.095-.653.763-.864a96.26 96.26 0 0 1 2.138-.672C6.174 3.859 7.644 0 10.717 0c.401 0 .86.211 1.241.691h.115c1.317 0 2.062 1.133 2.482 2.362.42-.135.687-.211.706-.211.019 0 .057-.02.076-.02zm-3.493.941c0-.921-.115-1.593-.306-2.093-.744.327-1.603 1.19-2.062 2.957.802-.25 1.623-.499 2.368-.73v-.134zM10.622.826C8.426.826 7.185 3.725 6.67 5.51a64.32 64.32 0 0 0 1.87-.576c.44-2.342 1.51-3.513 2.483-3.974a.67.67 0 0 0-.401-.134zm.534 10.425l.936-2.707s-.611-.365-1.852-.365c-3.226 0-4.81 2.17-4.81 4.397 0 2.65 2.634 2.726 2.634 4.34a.923.923 0 0 1-.955.92c-1.03 0-2.253-1.055-2.253-1.055l-.63 2.073s1.184 1.46 3.513 1.46c1.947 0 3.38-1.46 3.38-3.744 0-2.9-3.208-3.38-3.208-4.608 0-.23.057-1.133 1.489-1.133.955 0 1.756.422 1.756.422zm1.222-9.715c.172.5.267 1.114.267 1.862v.25c.42-.134.802-.25 1.146-.365-.286-.883-.726-1.67-1.413-1.747z" fill="#4D4D5A" fill-rule="evenodd"/></svg>