<svg width="24" height="24" xmlns="http://www.w3.org/2000/svg" xmlns:xlink="http://www.w3.org/1999/xlink"><defs><path d="M2.79 6.63L3.945 13h15.11l1.156-6.376-2.812.972a2 2 0 0 1-2.123-.533l-3.78-4.093-3.823 4.1a2 2 0 0 1-2.122.524L2.79 6.63zm-.96-2.454l4.38 1.53L10.77.818a1 1 0 0 1 1.466.004l4.51 4.884 4.428-1.531a1 1 0 0 1 1.311 1.123l-1.61 8.88a1 1 0 0 1-.984.822H3.11a1 1 0 0 1-.984-.822l-1.61-8.88A1 1 0 0 1 1.83 4.176zM12.12 6.707l1.5 1.5a1 1 0 0 1 0 1.414l-1.5 1.5a1 1 0 0 1-1.414 0l-1.5-1.5a1 1 0 0 1 0-1.414l1.5-1.5a1 1 0 0 1 1.414 0zM3.5 18.5a1 1 0 0 1 0-2h16a1 1 0 0 1 0 2h-16z" id="a"/></defs><g transform="translate(.5 3.5)" fill="none" fill-rule="evenodd"><use fill="#4D4D5A" fill-rule="nonzero" xlink:href="#a"/></g></svg>