<svg width="24" height="24" xmlns="http://www.w3.org/2000/svg" xmlns:xlink="http://www.w3.org/1999/xlink"><defs><path d="M6 14.878V20.2c0 .032 0 .064-.002.096l1.815.837a4 4 0 0 0 1.674.367h3.826c1.094 0 2.224-.466 3.04-1.274.633-.626 2.11-2.461 4.42-5.5.277-.319.306-.886.056-1.254l-.084-.124c-.235-.345-.566-.432-.852-.265l-2.178 2.074c-.557.486-1.242.867-2.049 1.148a1 1 0 0 1-.657-1.89c.575-.2 1.036-.456 1.358-.736l2.213-2.107.115-.095c1.232-.864 2.842-.521 3.704.747l.084.124c.756 1.112.676 2.678-.157 3.638-2.335 3.074-3.839 4.942-4.566 5.662-1.19 1.178-2.826 1.852-4.447 1.852H9.487a6 6 0 0 1-2.511-.551l-1.756-.81c-.51.53-1.226.861-2.02.861h-.4A2.8 2.8 0 0 1 0 20.2v-5.4A2.8 2.8 0 0 1 2.8 12h.4c.851 0 1.613.38 2.127.979l3.207-.715a6 6 0 0 1 1.306-.144h3.274c2.218 0 3.694 1.64 3.077 4.576a1 1 0 0 1-.978.795h-4.115a1 1 0 1 1 0-2h3.245c.046-1.022-.417-1.37-1.23-1.37H9.84a4 4 0 0 0-.87.095L6 14.878zM2 14.8v5.4a.8.8 0 0 0 .8.8h.4a.8.8 0 0 0 .8-.8v-5.4a.8.8 0 0 0-.8-.8h-.4a.8.8 0 0 0-.8.8zM12.5 9a4.5 4.5 0 1 1 0-9 4.5 4.5 0 0 1 0 9zm0-2a2.5 2.5 0 1 0 0-5 2.5 2.5 0 0 0 0 5z" id="a"/></defs><g fill="none" fill-rule="evenodd"><use fill="#4D4D5A" fill-rule="nonzero" xlink:href="#a"/></g></svg>