<svg width="32" height="32" xmlns="http://www.w3.org/2000/svg"><path d="M19.61 19.424a1.282 1.282 0 0 1 1.814-1.813.381.381 0 0 0 .415.083l.144-.06a.381.381 0 0 0 .235-.352 1.282 1.282 0 0 1 2.564 0c0 .154.093.293.235.352l.144.06a.381.381 0 0 0 .415-.083 1.282 1.282 0 0 1 1.813 1.813.381.381 0 0 0-.083.415l.06.144a.381.381 0 0 0 .352.235 1.282 1.282 0 0 1 0 2.564.381.381 0 0 0-.352.235l-.06.144a.381.381 0 0 0 .083.415 1.282 1.282 0 0 1-1.813 1.813.381.381 0 0 0-.415-.083l-.144.06a.381.381 0 0 0-.235.352 1.282 1.282 0 0 1-2.564 0 .381.381 0 0 0-.235-.352l-.144-.06a.381.381 0 0 0-.415.083 1.282 1.282 0 0 1-1.813-1.813.381.381 0 0 0 .083-.415l-.06-.144a.381.381 0 0 0-.352-.235 1.282 1.282 0 0 1 0-2.564.381.381 0 0 0 .352-.235l.06-.144a.381.381 0 0 0-.083-.415zm3.89 4.433a2.357 2.357 0 1 0 0-4.714 2.357 2.357 0 0 0 0 4.714zM5 24h10.5a1 1 0 0 1 0 2H4.958A1.954 1.954 0 0 1 3 24.05V6.95C3 5.871 3.879 5 4.958 5h21.084C27.122 5 28 5.871 28 6.95V14a1 1 0 0 1-2 0V7H5v17zm3-12.5a1 1 0 1 1 0-2h14.962a1 1 0 0 1 0 2H8z" fill="#4D4D5A"/></svg>