<svg width="24" height="24" xmlns="http://www.w3.org/2000/svg"><path d="M21 16.944a.98.98 0 0 1-.263.732c-.454.495-.654.931-.654 1.324s.2.83.654 1.324C21.325 20.966 20.87 22 20 22H6a3 3 0 0 1-3-3V5c0-1.12.94-2 2.067-2H10a1 1 0 0 1 1-1h5a1 1 0 0 1 1 1h1.933C20.061 3 21 3.88 21 5v11.944zM19 16V5c0 .015-.016 0-.067 0H17v7a1 1 0 0 1-1.525.851L13.5 11.633l-1.975 1.218A1 1 0 0 1 10 12V5H5.067C5.016 5 5 5.015 5 5v11.17c.313-.11.65-.17 1-.17h13zM12 4v6.208l.975-.6a1 1 0 0 1 1.05 0l.975.6V4h-3zM6 18a1 1 0 0 0 0 2h12.241a3.272 3.272 0 0 1-.158-1c0-.34.054-.673.158-1H6z" fill="#4D4D5A"/></svg>