<svg width="24" height="24" xmlns="http://www.w3.org/2000/svg"><path d="M19 10.327a1 1 0 1 1 2 0v9.548C21 21.588 19.67 23 18 23H6c-1.67 0-3-1.412-3-3.125V7.125C3 5.412 4.33 4 6 4h7.053a1 1 0 1 1 0 2H6c-.538 0-1 .49-1 1.125v12.75C5 20.509 5.462 21 6 21h12c.538 0 1-.49 1-1.125v-9.548zm-1.56-1.132l-1.895.802a1 1 0 0 1-1.378-1.076l.32-2.034a1 1 0 0 1 .2-.46L19.176.681A1 1 0 0 1 20.579.51l1.577 1.231a1 1 0 0 1 .172 1.404l-4.49 5.746a1 1 0 0 1-.398.305zM9 11a1 1 0 0 1 0-2h2a1 1 0 1 1 0 2H9zm0 3.5a1 1 0 0 1 0-2h7a1 1 0 0 1 0 2H9zm.013 4a1 1 0 0 1 0-2h3.975a1 1 0 0 1 0 2H9.013z" fill="#4D4D5A"/></svg>