<svg width="24" height="24" xmlns="http://www.w3.org/2000/svg"><path d="M12.614 13.6c-.1 0-.171-.071-.185-.171v-2.115c0-.085.085-.171.185-.171h3.015c.857 0 1.4.514 1.4 1.228 0 .758-.543 1.229-1.4 1.229h-3.015zm0 4.871c-.1 0-.171-.071-.185-.185v-2.329c0-.086.085-.171.185-.171h3.115c.985 0 1.528.6 1.528 1.343 0 .857-.571 1.342-1.528 1.342h-3.115zM23.643.057c.114-.114.314-.028.271.129v23.543a.159.159 0 0 1-.157.157H.23c-.186 0-.272-.229-.143-.357l9.785-9.743v6.728c0 .086.086.172.186.172h6.314c2.3 0 3.486-1.415 3.486-3.186 0-1.257-.728-2.329-1.757-2.729-.157-.057-.157-.257-.014-.314.885-.4 1.714-1.3 1.714-2.528 0-1.558-1.343-2.986-3.614-2.986h-1.457L23.643.057z" fill="#4D4D5A" fill-rule="evenodd"/></svg>